<svg version="1.1" id="prefix__Layer_1" xmlns="http://www.w3.org/2000/svg" xmlns:xlink="http://www.w3.org/1999/xlink" x="0" y="0" viewBox="0 0 193.23 121.52" xml:space="preserve"><style></style><defs><path id="prefix__SVGID_1_" d="M0 0h193.23v121.52H0z"/></defs><clipPath id="prefix__SVGID_00000066517391832753278890000005667591640165868982_"><use xlink:href="#prefix__SVGID_1_" overflow="visible"/></clipPath><path d="M172.07 108.1l20.41 12.47H46.56l-45.81.2s7.31-2.86 40.24-23.99l4.73-3.02c2.51-1.65 5.14-3.35 7.92-5.17C97.41 60.01 118.2 75.2 118.2 75.2l26.22 16.01v.01l27.65 16.88z" clip-path="url(#prefix__SVGID_00000066517391832753278890000005667591640165868982_)" fill="#fff"/><path d="M172.07 108.1l20.41 12.47H46.56l-45.81.2s7.31-2.86 40.24-23.99l4.73-3.02c2.51-1.65 5.14-3.35 7.92-5.17C97.41 60.01 118.2 75.2 118.2 75.2l26.22 16.01v.01l27.65 16.88z" clip-path="url(#prefix__SVGID_00000066517391832753278890000005667591640165868982_)" fill="none" stroke="#001b53" stroke-linecap="round" stroke-linejoin="round" stroke-miterlimit="10"/><path d="M152.05 51.38c0 6.61-5.36 11.97-11.97 11.97s-11.97-5.36-11.97-11.97 5.36-11.97 11.97-11.97 11.97 5.36 11.97 11.97" clip-path="url(#prefix__SVGID_00000066517391832753278890000005667591640165868982_)" fill="#fff"/><circle cx="140.08" cy="51.38" r="11.97" clip-path="url(#prefix__SVGID_00000066517391832753278890000005667591640165868982_)" fill="none" stroke="#001b53" stroke-linecap="round" stroke-linejoin="round" stroke-miterlimit="10"/><path clip-path="url(#prefix__SVGID_00000066517391832753278890000005667591640165868982_)" fill="#fff" d="M140.08 51.38V88.2"/><path clip-path="url(#prefix__SVGID_00000066517391832753278890000005667591640165868982_)" fill="none" stroke="#001b53" stroke-linecap="round" stroke-linejoin="round" stroke-miterlimit="10" d="M140.08 51.38V88.2"/><path clip-path="url(#prefix__SVGID_00000066517391832753278890000005667591640165868982_)" fill="#fff" d="M134.98 52.56l5.1 4.71"/><path clip-path="url(#prefix__SVGID_00000066517391832753278890000005667591640165868982_)" fill="none" stroke="#001b53" stroke-linecap="round" stroke-linejoin="round" stroke-miterlimit="10" d="M134.98 52.56l5.1 4.71"/><path clip-path="url(#prefix__SVGID_00000066517391832753278890000005667591640165868982_)" fill="#fff" d="M144.8 52.56l-4.72 4.71"/><path clip-path="url(#prefix__SVGID_00000066517391832753278890000005667591640165868982_)" fill="none" stroke="#001b53" stroke-linecap="round" stroke-linejoin="round" stroke-miterlimit="10" d="M144.8 52.56l-4.72 4.71"/><path clip-path="url(#prefix__SVGID_00000066517391832753278890000005667591640165868982_)" fill="#fff" d="M121.21 60.38v15.87"/><path clip-path="url(#prefix__SVGID_00000066517391832753278890000005667591640165868982_)" fill="none" stroke="#001b53" stroke-linecap="round" stroke-linejoin="round" stroke-miterlimit="10" d="M121.21 60.38v15.87"/><path d="M152.05 51.38c0 6.61-5.36 11.97-11.97 11.97s-11.97-5.36-11.97-11.97 5.36-11.97 11.97-11.97 11.97 5.36 11.97 11.97" clip-path="url(#prefix__SVGID_00000066517391832753278890000005667591640165868982_)" fill="#fff"/><circle cx="140.08" cy="51.38" r="11.97" clip-path="url(#prefix__SVGID_00000066517391832753278890000005667591640165868982_)" fill="none" stroke="#001b53" stroke-linecap="round" stroke-linejoin="round" stroke-miterlimit="10"/><path d="M129.16 56.26a9.727 9.727 0 01-7.95 4.12c-5.37 0-9.73-4.35-9.73-9.73s4.35-18.61 9.73-18.61c3.9 0 7.26 6.98 8.81 12.86" clip-path="url(#prefix__SVGID_00000066517391832753278890000005667591640165868982_)" fill="#fff"/><path d="M129.16 56.26a9.727 9.727 0 01-7.95 4.12c-5.37 0-9.73-4.35-9.73-9.73s4.35-18.61 9.73-18.61c3.9 0 7.26 6.98 8.81 12.86" clip-path="url(#prefix__SVGID_00000066517391832753278890000005667591640165868982_)" fill="none" stroke="#001b53" stroke-linecap="round" stroke-linejoin="round" stroke-miterlimit="10"/><path d="M76.5 27.43c.07-.32.11-.66.11-1a4.748 4.748 0 00-8.24-3.22c-.75-1.32-2.16-2.23-3.79-2.23-1.9 0-3.49 1.21-4.1 2.9a6.63 6.63 0 00-2.19-.38 6.7 6.7 0 000 13.4h16.82c2.67 0 4.84-2.17 4.84-4.84a4.88 4.88 0 00-3.45-4.63" clip-path="url(#prefix__SVGID_00000066517391832753278890000005667591640165868982_)" fill="#fff"/><path d="M76.5 27.43c.07-.32.11-.66.11-1a4.748 4.748 0 00-8.24-3.22c-.75-1.32-2.16-2.23-3.79-2.23-1.9 0-3.49 1.21-4.1 2.9a6.63 6.63 0 00-2.19-.38 6.7 6.7 0 000 13.4h16.82c2.67 0 4.84-2.17 4.84-4.84a4.88 4.88 0 00-3.45-4.63z" clip-path="url(#prefix__SVGID_00000066517391832753278890000005667591640165868982_)" fill="none" stroke="#001b53" stroke-linecap="round" stroke-linejoin="round" stroke-miterlimit="10"/><path d="M105.64 7.88a5.25 5.25 0 00-5.13-6.36c-1.53 0-2.89.66-3.85 1.69-.83-1.46-2.39-2.46-4.19-2.46-2.09 0-3.86 1.34-4.53 3.2a7.396 7.396 0 00-9.82 6.99c0 4.09 3.31 7.4 7.4 7.4h18.58c2.95 0 5.34-2.39 5.34-5.34 0-2.42-1.6-4.46-3.8-5.12" clip-path="url(#prefix__SVGID_00000066517391832753278890000005667591640165868982_)" fill="#fff"/><path d="M105.64 7.88a5.25 5.25 0 00-5.13-6.36c-1.53 0-2.89.66-3.85 1.69-.83-1.46-2.39-2.46-4.19-2.46-2.09 0-3.86 1.34-4.53 3.2a7.396 7.396 0 00-9.82 6.99c0 4.09 3.31 7.4 7.4 7.4h18.58c2.95 0 5.34-2.39 5.34-5.34 0-2.42-1.6-4.46-3.8-5.12z" clip-path="url(#prefix__SVGID_00000066517391832753278890000005667591640165868982_)" fill="none" stroke="#001b53" stroke-linecap="round" stroke-linejoin="round" stroke-miterlimit="10"/><circle cx="140.08" cy="51.38" r="11.97" clip-path="url(#prefix__SVGID_00000066517391832753278890000005667591640165868982_)" fill="none" stroke="#001b53" stroke-linecap="round" stroke-linejoin="round" stroke-miterlimit="10"/><path clip-path="url(#prefix__SVGID_00000066517391832753278890000005667591640165868982_)" fill="none" stroke="#001b53" stroke-linecap="round" stroke-linejoin="round" stroke-miterlimit="10" d="M140.08 51.38V88.2M134.98 52.56l5.1 4.71M144.8 52.56l-4.72 4.71M121.21 60.38v15.87"/><circle cx="140.08" cy="51.38" r="11.97" clip-path="url(#prefix__SVGID_00000066517391832753278890000005667591640165868982_)" fill="none" stroke="#001b53" stroke-linecap="round" stroke-linejoin="round" stroke-miterlimit="10"/><path d="M129.16 56.26a9.727 9.727 0 01-7.95 4.12c-5.37 0-9.73-4.35-9.73-9.73s4.35-18.61 9.73-18.61c3.9 0 7.26 6.98 8.81 12.86" clip-path="url(#prefix__SVGID_00000066517391832753278890000005667591640165868982_)" fill="none" stroke="#001b53" stroke-linecap="round" stroke-linejoin="round" stroke-miterlimit="10"/><path d="M93.56 109.68l-.44-1.28c-.06-.16-.28-.19-.37-.04l-.89 1.42 1.7-.1z" clip-path="url(#prefix__SVGID_00000066517391832753278890000005667591640165868982_)" fill="#fff"/><path d="M93.56 109.68l-.44-1.28c-.06-.16-.28-.19-.37-.04l-.89 1.42 1.7-.1z" clip-path="url(#prefix__SVGID_00000066517391832753278890000005667591640165868982_)" fill="none" stroke="#001b53" stroke-linecap="round" stroke-linejoin="round" stroke-miterlimit="10"/><path clip-path="url(#prefix__SVGID_00000066517391832753278890000005667591640165868982_)" fill="#fff" d="M75.72 111.59l-1.87 5.5-1.35 2.23 1.61.71.78-2.37 2.21-3.27-.72-2.8z"/><path clip-path="url(#prefix__SVGID_00000066517391832753278890000005667591640165868982_)" fill="none" stroke="#001b53" stroke-linecap="round" stroke-linejoin="round" stroke-miterlimit="10" d="M75.72 111.59l-1.87 5.5-1.35 2.23 1.61.71.78-2.37 2.21-3.27-.72-2.8z"/><path clip-path="url(#prefix__SVGID_00000066517391832753278890000005667591640165868982_)" fill="#fff" d="M57.09 112.89l1.37 6.66h1.28l-.09-5.15"/><path clip-path="url(#prefix__SVGID_00000066517391832753278890000005667591640165868982_)" fill="none" stroke="#001b53" stroke-linecap="round" stroke-linejoin="round" stroke-miterlimit="10" d="M57.09 112.89l1.37 6.66h1.28l-.09-5.15"/><path d="M81.63 111.11c-.46.26-.99.43-1.55.47l-.03.22-.85 4.98v3.64h-1.56v-3.89l-1.18-4.63-.08-.3c-3.91 2.34-15.19 1.49-16.41 0-.61 0-1.19-.15-1.69-.41l-.03.06c-.86 1.5-1.92 2.66-3.35 3.47v5.33h-1.39v-8.27s.66-1.58 1.18-2.91l.28-1.84c.07-2.05.52-4.14 1.32-6.28 0-2.04 1.7-3.42 3.69-3.69 8.12-.76 14.85-1.09 19.84 0h.13c3.77.2 6.08 1.65 6.89 4.62l4.84 6.9.3.42.69.54 1.65-.25c.17-.03.29.16.21.31l-.68 1.17.15.34c.89.66 1.85 1.28.65 3.32-.14 1.41-.2 2.81 0 4.16-.1 1.6-1.25 1.98-2.55.63-1.77-1.73-3.1-3.57-3.6-5.75l-.15-.16s-1.85-1.81-4.16.16c-1.46.63-2.97.9-4.54.67" clip-path="url(#prefix__SVGID_00000066517391832753278890000005667591640165868982_)" fill="#fff"/><path d="M81.63 111.11c-.46.26-.99.43-1.55.47l-.03.22-.85 4.98v3.64h-1.56v-3.89l-1.18-4.63-.08-.3c-3.91 2.34-15.19 1.49-16.41 0-.61 0-1.19-.15-1.69-.41l-.03.06c-.86 1.5-1.92 2.66-3.35 3.47v5.33h-1.39v-8.27s.66-1.58 1.18-2.91l.28-1.84c.07-2.05.52-4.14 1.32-6.28 0-2.04 1.7-3.42 3.69-3.69 8.12-.76 14.85-1.09 19.84 0h.13c3.77.2 6.08 1.65 6.89 4.62l4.84 6.9.3.42.69.54 1.65-.25c.17-.03.29.16.21.31l-.68 1.17.15.34c.89.66 1.85 1.28.65 3.32-.14 1.41-.2 2.81 0 4.16-.1 1.6-1.25 1.98-2.55.63-1.77-1.73-3.1-3.57-3.6-5.75l-.15-.16s-1.85-1.81-4.16.16c-1.46.63-2.97.9-4.54.67" clip-path="url(#prefix__SVGID_00000066517391832753278890000005667591640165868982_)" fill="none" stroke="#001b53" stroke-linecap="round" stroke-linejoin="round" stroke-miterlimit="10"/><path d="M59.97 97.04c-4.73 0-8.22 3.61-7.36 11.33" clip-path="url(#prefix__SVGID_00000066517391832753278890000005667591640165868982_)" fill="#fff"/><path d="M59.97 97.04c-4.73 0-8.22 3.61-7.36 11.33" clip-path="url(#prefix__SVGID_00000066517391832753278890000005667591640165868982_)" fill="none" stroke="#001b53" stroke-linecap="round" stroke-linejoin="round" stroke-miterlimit="10"/><path d="M54.12 111.43c.32.36 1.35-.45 1.35-.45 1.82-1.04 1.9-3.48 1.9-3.48s.18-.12.26-.05c.23.21.18.72.95.73.77.01 4.91-3.39 4.27-3.68-.64-.29-1.03-2.02-2.18-1.86-1.16.16-1.58-.54-1.74-.94-.12-.24-.69-1.21-1.85-.58-1.16.63-1.64 1.56-1.89 3.57s-.51 4.17-.51 4.17-.88 2.22-.56 2.57" clip-path="url(#prefix__SVGID_00000066517391832753278890000005667591640165868982_)" fill="#fff"/><path d="M54.12 111.43c.32.36 1.35-.45 1.35-.45 1.82-1.04 1.9-3.48 1.9-3.48s.18-.12.26-.05c.23.21.18.72.95.73.77.01 4.91-3.39 4.27-3.68-.64-.29-1.03-2.02-2.18-1.86-1.16.16-1.58-.54-1.74-.94-.12-.24-.69-1.21-1.85-.58-1.16.63-1.64 1.56-1.89 3.57s-.51 4.17-.51 4.17-.88 2.22-.56 2.57z" clip-path="url(#prefix__SVGID_00000066517391832753278890000005667591640165868982_)" fill="none" stroke="#001b53" stroke-linecap="round" stroke-linejoin="round" stroke-miterlimit="10"/><path d="M83.8 113.35c-1.31-1.22-1.48-3.88-1.53-4.88-.06-1 .32-2.15 1.17-2.45.85-.3 2.38-.99 3.48-.47.21.16.52.16 1.01-.1l1.24-.47 2.81 4 .69.54 1.65-.25c.23.03.26.15.21.31l-.68 1.17.15.34c1.63.64 1.51 1.86.65 3.32-.18 1.24-.16 2.64 0 4.15-.24 1.59-1.02 1.96-2.55.63-1.78-1.73-3.11-3.6-3.6-5.75-1.39-1.24-2.83-1.22-4.31 0l-.39-.09z" clip-path="url(#prefix__SVGID_00000066517391832753278890000005667591640165868982_)" fill="#fff"/><path d="M83.8 113.35c-1.31-1.22-1.48-3.88-1.53-4.88-.06-1 .32-2.15 1.17-2.45.85-.3 2.38-.99 3.48-.47.21.16.52.16 1.01-.1l1.24-.47 2.81 4 .69.54 1.65-.25c.23.03.26.15.21.31l-.68 1.17.15.34c1.63.64 1.51 1.86.65 3.32-.18 1.24-.16 2.64 0 4.15-.24 1.59-1.02 1.96-2.55.63-1.78-1.73-3.11-3.6-3.6-5.75-1.39-1.24-2.83-1.22-4.31 0l-.39-.09z" clip-path="url(#prefix__SVGID_00000066517391832753278890000005667591640165868982_)" fill="none" stroke="#001b53" stroke-linecap="round" stroke-linejoin="round" stroke-miterlimit="10"/><path d="M82.77 97.51s.6 5.18 5.31 5.93l-1.25-1.79c-.72-2.39-2.19-3.6-4.06-4.14" clip-path="url(#prefix__SVGID_00000066517391832753278890000005667591640165868982_)" fill="#fff"/><path d="M82.77 97.51s.6 5.18 5.31 5.93l-1.25-1.79c-.72-2.39-2.19-3.6-4.06-4.14z" clip-path="url(#prefix__SVGID_00000066517391832753278890000005667591640165868982_)" fill="none" stroke="#001b53" stroke-linecap="round" stroke-linejoin="round" stroke-miterlimit="10"/><path clip-path="url(#prefix__SVGID_00000066517391832753278890000005667591640165868982_)" fill="#fff" d="M87.22 116.74l-1.67-.48.99-2.38 1.09.31z"/><path clip-path="url(#prefix__SVGID_00000066517391832753278890000005667591640165868982_)" fill="none" stroke="#001b53" stroke-linecap="round" stroke-linejoin="round" stroke-miterlimit="10" d="M87.22 116.74l-1.67-.48.99-2.38 1.09.31z"/><path d="M92.19 108.62c-2.56.98-3.84 2.3-4.24 4.83l-.95-.54c.54-2.54 2-4.01 4.39-5.02l.8.73z" clip-path="url(#prefix__SVGID_00000066517391832753278890000005667591640165868982_)" fill="#fff"/><path d="M92.19 108.62c-2.56.98-3.84 2.3-4.24 4.83l-.95-.54c.54-2.54 2-4.01 4.39-5.02l.8.73z" clip-path="url(#prefix__SVGID_00000066517391832753278890000005667591640165868982_)" fill="none" stroke="#001b53" stroke-linecap="round" stroke-linejoin="round" stroke-miterlimit="10"/><path clip-path="url(#prefix__SVGID_00000066517391832753278890000005667591640165868982_)" fill="#fff" d="M87.48 113.2l-.32.86"/><path clip-path="url(#prefix__SVGID_00000066517391832753278890000005667591640165868982_)" fill="none" stroke="#001b53" stroke-linecap="round" stroke-linejoin="round" stroke-miterlimit="10" d="M87.48 113.2l-.32.86"/><path d="M65.28 96.64s-1.55 4.61 0 6.07 1.03-.35 2.4-.35.6 3.75 2.56 4.64c1.96.89 4.08.82 5.73 0s2.13-2.02 2.13-2.02 2.31-1.27 2.31-2.62-.08-5.32-.08-5.32-6.05-1.11-15.05-.4" clip-path="url(#prefix__SVGID_00000066517391832753278890000005667591640165868982_)" fill="#fff"/><path d="M65.28 96.64s-1.55 4.61 0 6.07 1.03-.35 2.4-.35.6 3.75 2.56 4.64c1.96.89 4.08.82 5.73 0s2.13-2.02 2.13-2.02 2.31-1.27 2.31-2.62-.08-5.32-.08-5.32-6.05-1.11-15.05-.4z" clip-path="url(#prefix__SVGID_00000066517391832753278890000005667591640165868982_)" fill="none" stroke="#001b53" stroke-linecap="round" stroke-linejoin="round" stroke-miterlimit="10"/><path d="M57.8 111.96c.28 1.08 1.14 1.97 2.29 2.45v.56c0 .23.22.42.48.42s.48-.19.48-.42v-.27c.21.04.43.07.65.08v.61c0 .23.22.42.48.42s.48-.19.48-.42v-.65c.22-.03.44-.07.65-.12v.35c0 .23.22.42.48.42s.48-.19.48-.42v-.72c.61-.32 1.13-.76 1.49-1.28" clip-path="url(#prefix__SVGID_00000066517391832753278890000005667591640165868982_)" fill="#fff"/><path d="M57.8 111.96c.28 1.08 1.14 1.97 2.29 2.45v.56c0 .23.22.42.48.42s.48-.19.48-.42v-.27c.21.04.43.07.65.08v.61c0 .23.22.42.48.42s.48-.19.48-.42v-.65c.22-.03.44-.07.65-.12v.35c0 .23.22.42.48.42s.48-.19.48-.42v-.72c.61-.32 1.13-.76 1.49-1.28M93.56 109.68l-.44-1.28c-.06-.16-.28-.19-.37-.04l-.89 1.42 1.7-.1zM75.72 111.59l-1.87 5.5-1.35 2.23 1.61.71.78-2.37 2.21-3.27-.72-2.8z" clip-path="url(#prefix__SVGID_00000066517391832753278890000005667591640165868982_)" fill="none" stroke="#001b53" stroke-linecap="round" stroke-linejoin="round" stroke-miterlimit="10"/><path clip-path="url(#prefix__SVGID_00000066517391832753278890000005667591640165868982_)" fill="none" stroke="#001b53" stroke-linecap="round" stroke-linejoin="round" stroke-miterlimit="10" d="M57.09 112.89l1.37 6.66h1.28l-.09-5.15"/><path d="M81.63 111.11c-.46.26-.99.43-1.55.47l-.03.22-.85 4.98v3.64h-1.56v-3.89l-1.18-4.63-.08-.3c-3.91 2.34-15.19 1.49-16.41 0-.61 0-1.19-.15-1.69-.41l-.03.06c-.86 1.5-1.92 2.66-3.35 3.47v5.33h-1.39v-8.27s.66-1.58 1.18-2.91l.28-1.84c.07-2.05.52-4.14 1.32-6.28 0-2.04 1.7-3.42 3.69-3.69 8.12-.76 14.85-1.09 19.84 0h.13c3.77.2 6.08 1.65 6.89 4.62l4.84 6.9.3.42.69.54 1.65-.25c.17-.03.29.16.21.31l-.68 1.17.15.34c.89.66 1.85 1.28.65 3.32-.14 1.41-.2 2.81 0 4.16-.1 1.6-1.25 1.98-2.55.63-1.77-1.73-3.1-3.57-3.6-5.75l-.15-.16s-1.85-1.81-4.16.16c-1.46.63-2.97.9-4.54.67M59.97 97.04c-4.73 0-8.22 3.61-7.36 11.33" clip-path="url(#prefix__SVGID_00000066517391832753278890000005667591640165868982_)" fill="none" stroke="#001b53" stroke-linecap="round" stroke-linejoin="round" stroke-miterlimit="10"/><path d="M54.12 111.43c.32.36 1.35-.45 1.35-.45 1.82-1.04 1.9-3.48 1.9-3.48s.18-.12.26-.05c.23.21.18.72.95.73.77.01 4.91-3.39 4.27-3.68-.64-.29-1.03-2.02-2.18-1.86-1.16.16-1.58-.54-1.74-.94-.12-.24-.69-1.21-1.85-.58-1.16.63-1.64 1.56-1.89 3.57s-.51 4.17-.51 4.17-.88 2.22-.56 2.57zM83.8 113.35c-1.31-1.22-1.48-3.88-1.53-4.88-.06-1 .32-2.15 1.17-2.45.85-.3 2.38-.99 3.48-.47.21.16.52.16 1.01-.1l1.24-.47 2.81 4 .69.54 1.65-.25c.23.03.26.15.21.31l-.68 1.17.15.34c1.63.64 1.51 1.86.65 3.32-.18 1.24-.16 2.64 0 4.15-.24 1.59-1.02 1.96-2.55.63-1.78-1.73-3.11-3.6-3.6-5.75-1.39-1.24-2.83-1.22-4.31 0l-.39-.09zM82.77 97.51s.6 5.18 5.31 5.93l-1.25-1.79c-.72-2.39-2.19-3.6-4.06-4.14z" clip-path="url(#prefix__SVGID_00000066517391832753278890000005667591640165868982_)" fill="none" stroke="#001b53" stroke-linecap="round" stroke-linejoin="round" stroke-miterlimit="10"/><path clip-path="url(#prefix__SVGID_00000066517391832753278890000005667591640165868982_)" fill="#001b53" stroke="#001b53" stroke-linecap="round" stroke-linejoin="round" stroke-miterlimit="10" d="M87.22 116.74l-1.67-.48.99-2.38 1.09.31z"/><path d="M92.19 108.62c-2.56.98-3.84 2.3-4.24 4.83l-.95-.54c.54-2.54 2-4.01 4.39-5.02l.8.73zM87.48 113.2l-.32.86M65.28 96.64s-1.55 4.61 0 6.07 1.03-.35 2.4-.35.6 3.75 2.56 4.64c1.96.89 4.08.82 5.73 0s2.13-2.02 2.13-2.02 2.31-1.27 2.31-2.62-.08-5.32-.08-5.32-6.05-1.11-15.05-.4zM57.8 111.96c.28 1.08 1.14 1.97 2.29 2.45v.56c0 .23.22.42.48.42s.48-.19.48-.42v-.27c.21.04.43.07.65.08v.61c0 .23.22.42.48.42s.48-.19.48-.42v-.65c.22-.03.44-.07.65-.12v.35c0 .23.22.42.48.42s.48-.19.48-.42v-.72c.61-.32 1.13-.76 1.49-1.28" clip-path="url(#prefix__SVGID_00000066517391832753278890000005667591640165868982_)" fill="none" stroke="#001b53" stroke-linecap="round" stroke-linejoin="round" stroke-miterlimit="10"/><path d="M138.08 98.48l.38-1.08c.05-.14.24-.16.31-.04l.76 1.2-1.45-.08z" clip-path="url(#prefix__SVGID_00000066517391832753278890000005667591640165868982_)" fill="#fff"/><path d="M138.08 98.48l.38-1.08c.05-.14.24-.16.31-.04l.76 1.2-1.45-.08z" clip-path="url(#prefix__SVGID_00000066517391832753278890000005667591640165868982_)" fill="none" stroke="#001b53" stroke-linecap="round" stroke-linejoin="round" stroke-miterlimit="10"/><path clip-path="url(#prefix__SVGID_00000066517391832753278890000005667591640165868982_)" fill="#fff" d="M153.22 100.09l1.59 4.67 1.14 1.9-1.36.6-.67-2.01-1.87-2.77.61-2.39z"/><path clip-path="url(#prefix__SVGID_00000066517391832753278890000005667591640165868982_)" fill="none" stroke="#001b53" stroke-linecap="round" stroke-linejoin="round" stroke-miterlimit="10" d="M153.22 100.09l1.59 4.67 1.14 1.9-1.36.6-.67-2.01-1.87-2.77.61-2.39z"/><path clip-path="url(#prefix__SVGID_00000066517391832753278890000005667591640165868982_)" fill="#fff" d="M166.86 102.48l-.03 1.43-.05 2.94h1.09l.43-2.05.74-3.59"/><path clip-path="url(#prefix__SVGID_00000066517391832753278890000005667591640165868982_)" fill="none" stroke="#001b53" stroke-linecap="round" stroke-linejoin="round" stroke-miterlimit="10" d="M166.86 102.48l-.03 1.43-.05 2.94h1.09l.43-2.05.74-3.59"/><path d="M149.88 102.25c-1.33.19-2.61-.03-3.85-.57a4.93 4.93 0 00-.71-.48c-.08-.04-.15-.08-.22-.1-.08-.03-.16-.06-.25-.09a.977.977 0 00-.23-.06c-.15-.03-.31-.05-.46-.05-.11 0-.22.01-.32.03-.08.01-.17.02-.25.05-.35.08-.62.22-.81.35-.18.11-.28.21-.28.21l-.13.14a7.573 7.573 0 01-.75 1.96c-.57 1.04-1.36 2-2.3 2.92-.48.5-.94.72-1.31.69a.62.62 0 01-.35-.1c-.04-.02-.07-.05-.1-.08-.23-.2-.38-.56-.41-1.05.09-.57.12-1.16.1-1.75 0-.59-.04-1.17-.1-1.77-.08-.14-.16-.28-.22-.42-.66-1.41.07-1.89.77-2.4l.12-.29-.57-.99c-.02-.06-.03-.12-.01-.16.01-.02.02-.04.04-.05l.01-.01c.03-.03.08-.05.14-.04l.73.11.67.1.37-.29.22-.17.13-.19.48-.68 1.78-2.53.91-1.3 1.06-1.52c.05-.16.1-.31.15-.46.11-.31.25-.61.42-.88.03-.04.05-.08.07-.11v-.01c.07-.13.16-.25.26-.37.05-.07.1-.13.15-.19.08-.1.17-.19.26-.28.11-.11.23-.22.35-.3.1-.08.21-.16.33-.24.24-.16.51-.3.79-.43.15-.06.29-.12.44-.17.08-.03.15-.05.23-.07.62-.2 1.31-.33 2.08-.39.11-.01.22-.01.33-.02h.1c.38-.08.76-.15 1.16-.22.03 0 .06-.01.09-.01 4.09-.63 9.36-.35 15.6.23 1.68.23 3.13 1.41 3.13 3.13.22.59.41 1.18.56 1.76.01.01.01.02.02.04.14.52.25 1.04.34 1.56 0 .02 0 .04.01.06.06.35.1.7.13 1.06.03.29.05.57.06.86l.19 1.25.03.23c.01.05.01.08.01.08s.05.13.13.33c.42 1.04.87 2.14.87 2.14v7.02h-1.18v-4.53c-.72-.4-1.33-.91-1.85-1.53a7.02 7.02 0 01-.61-.8c-.13-.19-.26-.4-.38-.61l-.03-.05c-.43.22-.92.35-1.43.35-.41.49-2.09.9-4.19 1.1-3 .28-6.85.15-9.07-.77-.24-.1-.47-.21-.67-.33l-.07.25-.54 2.13-.46 1.8v3.31h-1.32v-3.09l-.72-4.23-.03-.18c-.48-.03-.92-.17-1.32-.4" clip-path="url(#prefix__SVGID_00000066517391832753278890000005667591640165868982_)" fill="#fff"/><path d="M149.88 102.25c-1.33.19-2.61-.03-3.85-.57a4.93 4.93 0 00-.71-.48c-.08-.04-.15-.08-.22-.1-.08-.03-.16-.06-.25-.09a.977.977 0 00-.23-.06c-.15-.03-.31-.05-.46-.05-.11 0-.22.01-.32.03-.08.01-.17.02-.25.05-.35.08-.62.22-.81.35-.18.11-.28.21-.28.21l-.13.14a7.573 7.573 0 01-.75 1.96c-.57 1.04-1.36 2-2.3 2.92-.48.5-.94.72-1.31.69a.62.62 0 01-.35-.1c-.04-.02-.07-.05-.1-.08-.23-.2-.38-.56-.41-1.05.09-.57.12-1.16.1-1.75 0-.59-.04-1.17-.1-1.77-.08-.14-.16-.28-.22-.42-.66-1.41.07-1.89.77-2.4l.12-.29-.57-.99c-.02-.06-.03-.12-.01-.16.01-.02.02-.04.04-.05l.01-.01c.03-.03.08-.05.14-.04l.73.11.67.1.37-.29.22-.17.13-.19.48-.68 1.78-2.53.91-1.3 1.06-1.52c.05-.16.1-.31.15-.46.11-.31.25-.61.42-.88.03-.04.05-.08.07-.11v-.01c.07-.13.16-.25.26-.37.05-.07.1-.13.15-.19.08-.1.17-.19.26-.28.11-.11.23-.22.35-.3.1-.08.21-.16.33-.24.24-.16.51-.3.79-.43.15-.06.29-.12.44-.17.08-.03.15-.05.23-.07.62-.2 1.31-.33 2.08-.39.11-.01.22-.01.33-.02h.1c.38-.08.76-.15 1.16-.22.03 0 .06-.01.09-.01 4.09-.63 9.36-.35 15.6.23 1.68.23 3.13 1.41 3.13 3.13.22.59.41 1.18.56 1.76.01.01.01.02.02.04.14.52.25 1.04.34 1.56 0 .02 0 .04.01.06.06.35.1.7.13 1.06.03.29.05.57.06.86l.19 1.25.03.23c.01.05.01.08.01.08s.05.13.13.33c.42 1.04.87 2.14.87 2.14v7.02h-1.18v-4.53c-.72-.4-1.33-.91-1.85-1.53a7.02 7.02 0 01-.61-.8c-.13-.19-.26-.4-.38-.61l-.03-.05c-.43.22-.92.35-1.43.35-.41.49-2.09.9-4.19 1.1-3 .28-6.85.15-9.07-.77-.24-.1-.47-.21-.67-.33l-.07.25-.54 2.13-.46 1.8v3.31h-1.32v-3.09l-.72-4.23-.03-.18c-.48-.03-.92-.17-1.32-.4" clip-path="url(#prefix__SVGID_00000066517391832753278890000005667591640165868982_)" fill="none" stroke="#001b53" stroke-linecap="round" stroke-linejoin="round" stroke-miterlimit="10"/><path d="M166.59 87.75c4.01 0 6.98 3.07 6.25 9.62" clip-path="url(#prefix__SVGID_00000066517391832753278890000005667591640165868982_)" fill="#fff"/><path d="M166.59 87.75c4.01 0 6.98 3.07 6.25 9.62" clip-path="url(#prefix__SVGID_00000066517391832753278890000005667591640165868982_)" fill="none" stroke="#001b53" stroke-linecap="round" stroke-linejoin="round" stroke-miterlimit="10"/><path d="M171.55 99.96c-.27.3-1.15-.38-1.15-.38-1.54-.88-1.62-2.95-1.62-2.95s-.16-.1-.22-.04c-.19.18-.15.61-.81.62-.66.01-4.17-2.87-3.63-3.12s.87-1.72 1.85-1.58c.98.14 1.34-.46 1.48-.8.1-.2.59-1.03 1.57-.49.98.54 1.39 1.32 1.6 3.03.21 1.7.44 3.54.44 3.54s.76 1.87.49 2.17" clip-path="url(#prefix__SVGID_00000066517391832753278890000005667591640165868982_)" fill="#fff"/><path d="M171.55 99.96c-.27.3-1.15-.38-1.15-.38-1.54-.88-1.62-2.95-1.62-2.95s-.16-.1-.22-.04c-.19.18-.15.61-.81.62-.66.01-4.17-2.87-3.63-3.12s.87-1.72 1.85-1.58c.98.14 1.34-.46 1.48-.8.1-.2.59-1.03 1.57-.49.98.54 1.39 1.32 1.6 3.03.21 1.7.44 3.54.44 3.54s.76 1.87.49 2.17z" clip-path="url(#prefix__SVGID_00000066517391832753278890000005667591640165868982_)" fill="none" stroke="#001b53" stroke-linecap="round" stroke-linejoin="round" stroke-miterlimit="10"/><path d="M146.36 101.59c1.11-1.04 1.25-3.29 1.3-4.14.05-.85-.27-1.82-.99-2.08-.72-.25-2.02-.84-2.95-.4-.18.14-.44.14-.86-.09l-1.05-.4-2.39 3.4-.59.46-1.4-.21c-.2.02-.22.12-.18.26l.57.99-.12.29c-1.38.54-1.28 1.58-.55 2.82.15 1.05.13 2.24 0 3.53.2 1.35.87 1.67 2.17.54 1.51-1.47 2.64-3.06 3.06-4.88 1.18-1.05 2.4-1.03 3.66 0l.32-.09z" clip-path="url(#prefix__SVGID_00000066517391832753278890000005667591640165868982_)" fill="#fff"/><path d="M146.36 101.59c1.11-1.04 1.25-3.29 1.3-4.14.05-.85-.27-1.82-.99-2.08-.72-.25-2.02-.84-2.95-.4-.18.14-.44.14-.86-.09l-1.05-.4-2.39 3.4-.59.46-1.4-.21c-.2.02-.22.12-.18.26l.57.99-.12.29c-1.38.54-1.28 1.58-.55 2.82.15 1.05.13 2.24 0 3.53.2 1.35.87 1.67 2.17.54 1.51-1.47 2.64-3.06 3.06-4.88 1.18-1.05 2.4-1.03 3.66 0l.32-.09z" clip-path="url(#prefix__SVGID_00000066517391832753278890000005667591640165868982_)" fill="none" stroke="#001b53" stroke-linecap="round" stroke-linejoin="round" stroke-miterlimit="10"/><path d="M145.77 88.83c.24-.18.51-.32.79-.43-.28.13-.55.27-.79.43" clip-path="url(#prefix__SVGID_00000066517391832753278890000005667591640165868982_)" fill="#fff"/><path d="M145.77 88.83c.24-.18.51-.32.79-.43-.28.13-.55.27-.79.43z" clip-path="url(#prefix__SVGID_00000066517391832753278890000005667591640165868982_)" fill="none" stroke="#001b53" stroke-linecap="round" stroke-linejoin="round" stroke-miterlimit="10"/><path d="M147.23 88.15c-.08.03-.15.05-.23.08.07-.03.15-.06.23-.08" clip-path="url(#prefix__SVGID_00000066517391832753278890000005667591640165868982_)" fill="#fff"/><path d="M147.23 88.15h0c-.08.03-.15.05-.23.08.07-.03.15-.06.23-.08z" clip-path="url(#prefix__SVGID_00000066517391832753278890000005667591640165868982_)" fill="none" stroke="#001b53" stroke-linecap="round" stroke-linejoin="round" stroke-miterlimit="10"/><path clip-path="url(#prefix__SVGID_00000066517391832753278890000005667591640165868982_)" fill="#fff" d="M143.46 104.46l1.42-.4-.84-2.02-.93.26z"/><path clip-path="url(#prefix__SVGID_00000066517391832753278890000005667591640165868982_)" fill="none" stroke="#001b53" stroke-linecap="round" stroke-linejoin="round" stroke-miterlimit="10" d="M143.46 104.46l1.42-.4-.84-2.02-.93.26z"/><path d="M139.24 97.58c2.17.84 3.26 1.95 3.6 4.1l.81-.45c-.46-2.15-1.7-3.41-3.73-4.26l-.68.61z" clip-path="url(#prefix__SVGID_00000066517391832753278890000005667591640165868982_)" fill="#fff"/><path d="M139.24 97.58c2.17.84 3.26 1.95 3.6 4.1l.81-.45c-.46-2.15-1.7-3.41-3.73-4.26l-.68.61z" clip-path="url(#prefix__SVGID_00000066517391832753278890000005667591640165868982_)" fill="none" stroke="#001b53" stroke-linecap="round" stroke-linejoin="round" stroke-miterlimit="10"/><path clip-path="url(#prefix__SVGID_00000066517391832753278890000005667591640165868982_)" fill="#fff" d="M143.23 101.46l.28.73"/><path clip-path="url(#prefix__SVGID_00000066517391832753278890000005667591640165868982_)" fill="none" stroke="#001b53" stroke-linecap="round" stroke-linejoin="round" stroke-miterlimit="10" d="M143.23 101.46l.28.73"/><path d="M162.08 87.41s1.31 3.91 0 5.15c-1.31 1.24-.88-.3-2.03-.3-1.16 0-.51 3.19-2.18 3.94-1.67.76-3.47.69-4.86 0-1.39-.69-1.8-1.72-1.8-1.72s-1.96-1.08-1.96-2.22c0-1.15.07-4.51.07-4.51s5.12-.95 12.76-.34" clip-path="url(#prefix__SVGID_00000066517391832753278890000005667591640165868982_)" fill="#fff"/><path d="M162.08 87.41s1.31 3.91 0 5.15c-1.31 1.24-.88-.3-2.03-.3-1.16 0-.51 3.19-2.18 3.94-1.67.76-3.47.69-4.86 0-1.39-.69-1.8-1.72-1.8-1.72s-1.96-1.08-1.96-2.22c0-1.15.07-4.51.07-4.51s5.12-.95 12.76-.34z" clip-path="url(#prefix__SVGID_00000066517391832753278890000005667591640165868982_)" fill="none" stroke="#001b53" stroke-linecap="round" stroke-linejoin="round" stroke-miterlimit="10"/><path d="M168.43 100.41c-.24.91-.97 1.67-1.95 2.08v.48c0 .19-.18.35-.41.35s-.41-.16-.41-.35v-.23c-.18.03-.36.06-.55.07v.52c0 .19-.18.35-.41.35s-.41-.16-.41-.35v-.55c-.19-.02-.37-.06-.55-.1v.29c0 .19-.18.35-.41.35s-.41-.16-.41-.35v-.61c-.52-.27-.96-.64-1.26-1.09" clip-path="url(#prefix__SVGID_00000066517391832753278890000005667591640165868982_)" fill="#fff"/><path d="M168.43 100.41c-.24.91-.97 1.67-1.95 2.08v.48c0 .19-.18.35-.41.35s-.41-.16-.41-.35v-.23c-.18.03-.36.06-.55.07v.52c0 .19-.18.35-.41.35s-.41-.16-.41-.35v-.55c-.19-.02-.37-.06-.55-.1v.29c0 .19-.18.35-.41.35s-.41-.16-.41-.35v-.61c-.52-.27-.96-.64-1.26-1.09M138.08 98.48l.38-1.08c.05-.14.24-.16.31-.04l.76 1.2-1.45-.08zM153.22 100.09l1.59 4.67 1.14 1.9-1.36.6-.67-2.01-1.87-2.77.61-2.39z" clip-path="url(#prefix__SVGID_00000066517391832753278890000005667591640165868982_)" fill="none" stroke="#001b53" stroke-linecap="round" stroke-linejoin="round" stroke-miterlimit="10"/><path clip-path="url(#prefix__SVGID_00000066517391832753278890000005667591640165868982_)" fill="none" stroke="#001b53" stroke-linecap="round" stroke-linejoin="round" stroke-miterlimit="10" d="M166.86 102.48l-.03 1.43-.05 2.94h1.09l.43-2.05.74-3.59"/><path d="M149.88 102.25c-1.33.19-2.61-.03-3.85-.57a4.93 4.93 0 00-.71-.48c-.08-.04-.15-.08-.22-.1-.08-.03-.16-.06-.25-.09a.977.977 0 00-.23-.06c-.15-.03-.31-.05-.46-.05-.11 0-.22.01-.32.03-.08.01-.17.02-.25.05-.35.08-.62.22-.81.35-.18.11-.28.21-.28.21l-.13.14a7.573 7.573 0 01-.75 1.96c-.57 1.04-1.36 2-2.3 2.92-.48.5-.94.72-1.31.69a.62.62 0 01-.35-.1c-.04-.02-.07-.05-.1-.08-.23-.2-.38-.56-.41-1.05.09-.57.12-1.16.1-1.75 0-.59-.04-1.17-.1-1.77-.08-.14-.16-.28-.22-.42-.66-1.41.07-1.89.77-2.4l.12-.29-.57-.99c-.02-.06-.03-.12-.01-.16.01-.02.02-.04.04-.05l.01-.01c.03-.03.08-.05.14-.04l.73.11.67.1.37-.29.22-.17.13-.19.48-.68 1.78-2.53.91-1.3 1.06-1.52c.05-.16.1-.31.15-.46.11-.31.25-.61.42-.88.03-.04.05-.08.07-.11v-.01c.07-.13.16-.25.26-.37.05-.07.1-.13.15-.19.08-.1.17-.19.26-.28.11-.11.23-.22.35-.3.1-.08.21-.16.33-.24.24-.16.51-.3.79-.43.15-.06.29-.12.44-.17.08-.03.15-.05.23-.07.62-.2 1.31-.33 2.08-.39.11-.01.22-.01.33-.02h.1c.38-.08.76-.15 1.16-.22.03 0 .06-.01.09-.01 4.09-.63 9.36-.35 15.6.23 1.68.23 3.13 1.41 3.13 3.13.22.59.41 1.18.56 1.76.01.01.01.02.02.04.14.52.25 1.04.34 1.56 0 .02 0 .04.01.06.06.35.1.7.13 1.06.03.29.05.57.06.86l.19 1.25.03.23c.01.05.01.08.01.08s.05.13.13.33c.42 1.04.87 2.14.87 2.14v7.02h-1.18v-4.53c-.72-.4-1.33-.91-1.85-1.53a7.02 7.02 0 01-.61-.8c-.13-.19-.26-.4-.38-.61l-.03-.05c-.43.22-.92.35-1.43.35-.41.49-2.09.9-4.19 1.1-3 .28-6.85.15-9.07-.77-.24-.1-.47-.21-.67-.33l-.07.25-.54 2.13-.46 1.8v3.31h-1.32v-3.09l-.72-4.23-.03-.18c-.48-.03-.92-.17-1.32-.4M166.59 87.75c4.01 0 6.98 3.07 6.25 9.62" clip-path="url(#prefix__SVGID_00000066517391832753278890000005667591640165868982_)" fill="none" stroke="#001b53" stroke-linecap="round" stroke-linejoin="round" stroke-miterlimit="10"/><path d="M171.55 99.96c-.27.3-1.15-.38-1.15-.38-1.54-.88-1.62-2.95-1.62-2.95s-.16-.1-.22-.04c-.19.18-.15.61-.81.62-.66.01-4.17-2.87-3.63-3.12s.87-1.72 1.85-1.58c.98.14 1.34-.46 1.48-.8.1-.2.59-1.03 1.57-.49.98.54 1.39 1.32 1.6 3.03.21 1.7.44 3.54.44 3.54s.76 1.87.49 2.17zM146.36 101.59c1.11-1.04 1.25-3.29 1.3-4.14.05-.85-.27-1.82-.99-2.08-.72-.25-2.02-.84-2.95-.4-.18.14-.44.14-.86-.09l-1.05-.4-2.39 3.4-.59.46-1.4-.21c-.2.02-.22.12-.18.26l.57.99-.12.29c-1.38.54-1.28 1.58-.55 2.82.15 1.05.13 2.24 0 3.53.2 1.35.87 1.67 2.17.54 1.51-1.47 2.64-3.06 3.06-4.88 1.18-1.05 2.4-1.03 3.66 0l.32-.09zM145.77 88.83c.24-.18.51-.32.79-.43-.28.13-.55.27-.79.43zM147.23 88.15h0c-.08.03-.15.05-.23.08.07-.03.15-.06.23-.08z" clip-path="url(#prefix__SVGID_00000066517391832753278890000005667591640165868982_)" fill="none" stroke="#001b53" stroke-linecap="round" stroke-linejoin="round" stroke-miterlimit="10"/><path clip-path="url(#prefix__SVGID_00000066517391832753278890000005667591640165868982_)" fill="#001b53" stroke="#001b53" stroke-linecap="round" stroke-linejoin="round" stroke-miterlimit="10" d="M143.46 104.46l1.42-.4-.84-2.02-.93.26z"/><path d="M139.24 97.58c2.17.84 3.26 1.95 3.6 4.1l.81-.45c-.46-2.15-1.7-3.41-3.73-4.26l-.68.61zM143.23 101.46l.28.73M162.08 87.41s1.31 3.91 0 5.15c-1.31 1.24-.88-.3-2.03-.3-1.16 0-.51 3.19-2.18 3.94-1.67.76-3.47.69-4.86 0-1.39-.69-1.8-1.72-1.8-1.72s-1.96-1.08-1.96-2.22c0-1.15.07-4.51.07-4.51s5.12-.95 12.76-.34zM168.43 100.41c-.24.91-.97 1.67-1.95 2.08v.48c0 .19-.18.35-.41.35s-.41-.16-.41-.35v-.23c-.18.03-.36.06-.55.07v.52c0 .19-.18.35-.41.35s-.41-.16-.41-.35v-.55c-.19-.02-.37-.06-.55-.1v.29c0 .19-.18.35-.41.35s-.41-.16-.41-.35v-.61c-.52-.27-.96-.64-1.26-1.09" clip-path="url(#prefix__SVGID_00000066517391832753278890000005667591640165868982_)" fill="none" stroke="#001b53" stroke-linecap="round" stroke-linejoin="round" stroke-miterlimit="10"/><path clip-path="url(#prefix__SVGID_00000066517391832753278890000005667591640165868982_)" fill="#fff" d="M96.07 67.31h2.17v4.12h-2.17z"/><path clip-path="url(#prefix__SVGID_00000066517391832753278890000005667591640165868982_)" fill="none" stroke="#001b53" stroke-linecap="round" stroke-linejoin="round" stroke-miterlimit="10" d="M96.07 66.99h2.17v4.12h-2.17z"/><path clip-path="url(#prefix__SVGID_00000066517391832753278890000005667591640165868982_)" fill="none" stroke="#001b53" stroke-linecap="round" stroke-linejoin="round" d="M102.82 63.48h.25"/><path clip-path="url(#prefix__SVGID_00000066517391832753278890000005667591640165868982_)" fill="none" stroke="#001b53" stroke-linecap="round" stroke-linejoin="round" stroke-dasharray=".473 1.892" d="M104.96 63.48h6.15"/><path clip-path="url(#prefix__SVGID_00000066517391832753278890000005667591640165868982_)" fill="none" stroke="#001b53" stroke-linecap="round" stroke-linejoin="round" d="M112.06 63.48h.25M102.82 61.43l.23-.09"/><path clip-path="url(#prefix__SVGID_00000066517391832753278890000005667591640165868982_)" fill="none" stroke="#001b53" stroke-linecap="round" stroke-linejoin="round" stroke-dasharray=".473 1.892" d="M104.83 60.69l5.77-2.14"/><path clip-path="url(#prefix__SVGID_00000066517391832753278890000005667591640165868982_)" fill="none" stroke="#001b53" stroke-linecap="round" stroke-linejoin="round" d="M111.48 58.23l.24-.09M102.82 65.53l.23.08"/><path clip-path="url(#prefix__SVGID_00000066517391832753278890000005667591640165868982_)" fill="none" stroke="#001b53" stroke-linecap="round" stroke-linejoin="round" stroke-dasharray=".473 1.892" d="M104.83 66.27l5.77 2.13"/><path clip-path="url(#prefix__SVGID_00000066517391832753278890000005667591640165868982_)" fill="none" stroke="#001b53" stroke-linecap="round" stroke-linejoin="round" d="M111.48 68.73l.24.09M91.22 63.48h-.25"/><path clip-path="url(#prefix__SVGID_00000066517391832753278890000005667591640165868982_)" fill="none" stroke="#001b53" stroke-linecap="round" stroke-linejoin="round" stroke-dasharray=".473 1.892" d="M89.08 63.48h-6.15"/><path clip-path="url(#prefix__SVGID_00000066517391832753278890000005667591640165868982_)" fill="none" stroke="#001b53" stroke-linecap="round" stroke-linejoin="round" d="M81.98 63.48h-.25M91.22 61.43l-.23-.09"/><path clip-path="url(#prefix__SVGID_00000066517391832753278890000005667591640165868982_)" fill="none" stroke="#001b53" stroke-linecap="round" stroke-linejoin="round" stroke-dasharray=".473 1.892" d="M89.21 60.69l-5.77-2.14"/><path clip-path="url(#prefix__SVGID_00000066517391832753278890000005667591640165868982_)" fill="none" stroke="#001b53" stroke-linecap="round" stroke-linejoin="round" d="M82.55 58.23l-.23-.09M91.22 65.53l-.23.08"/><path clip-path="url(#prefix__SVGID_00000066517391832753278890000005667591640165868982_)" fill="none" stroke="#001b53" stroke-linecap="round" stroke-linejoin="round" stroke-dasharray=".473 1.892" d="M89.21 66.27l-5.77 2.13"/><path clip-path="url(#prefix__SVGID_00000066517391832753278890000005667591640165868982_)" fill="none" stroke="#001b53" stroke-linecap="round" stroke-linejoin="round" d="M82.55 68.73l-.23.09"/><path d="M100.3 61.68a3.15 3.15 0 11-3.15-3.15c1.74.01 3.15 1.42 3.15 3.15" clip-path="url(#prefix__SVGID_00000066517391832753278890000005667591640165868982_)" fill="#fff"/><path d="M100.3 61.68a3.15 3.15 0 11-3.15-3.15c1.74.01 3.15 1.42 3.15 3.15z" clip-path="url(#prefix__SVGID_00000066517391832753278890000005667591640165868982_)" fill="none" stroke="#13a89e" stroke-width="1.5" stroke-linecap="round" stroke-linejoin="round" stroke-miterlimit="10"/><path d="M2.02 86.78c0 7.63 6.19 13.82 13.82 13.82s13.82-6.19 13.82-13.82-6.19-13.82-13.82-13.82c-7.64.01-13.82 6.19-13.82 13.82" clip-path="url(#prefix__SVGID_00000066517391832753278890000005667591640165868982_)" fill="#fff"/><path d="M2.02 86.78c0 7.63 6.19 13.82 13.82 13.82s13.82-6.19 13.82-13.82-6.19-13.82-13.82-13.82c-7.64.01-13.82 6.19-13.82 13.82z" clip-path="url(#prefix__SVGID_00000066517391832753278890000005667591640165868982_)" fill="none" stroke="#001b53" stroke-linecap="round" stroke-linejoin="round" stroke-miterlimit="10"/><path clip-path="url(#prefix__SVGID_00000066517391832753278890000005667591640165868982_)" fill="#fff" d="M15.83 86.78v33.72"/><path clip-path="url(#prefix__SVGID_00000066517391832753278890000005667591640165868982_)" fill="none" stroke="#001b53" stroke-linecap="round" stroke-linejoin="round" stroke-miterlimit="10" d="M15.83 86.78v33.72"/><path clip-path="url(#prefix__SVGID_00000066517391832753278890000005667591640165868982_)" fill="#fff" d="M21.73 88.15l-5.9 5.44"/><path clip-path="url(#prefix__SVGID_00000066517391832753278890000005667591640165868982_)" fill="none" stroke="#001b53" stroke-linecap="round" stroke-linejoin="round" stroke-miterlimit="10" d="M21.73 88.15l-5.9 5.44"/><path clip-path="url(#prefix__SVGID_00000066517391832753278890000005667591640165868982_)" fill="#fff" d="M10.38 88.15l5.45 5.44"/><path clip-path="url(#prefix__SVGID_00000066517391832753278890000005667591640165868982_)" fill="none" stroke="#001b53" stroke-linecap="round" stroke-linejoin="round" stroke-miterlimit="10" d="M10.38 88.15l5.45 5.44"/><path clip-path="url(#prefix__SVGID_00000066517391832753278890000005667591640165868982_)" fill="#fff" d="M37.63 97.18v22.85"/><path clip-path="url(#prefix__SVGID_00000066517391832753278890000005667591640165868982_)" fill="none" stroke="#001b53" stroke-linecap="round" stroke-linejoin="round" stroke-miterlimit="10" d="M37.63 97.18v22.85"/><path d="M2.02 86.78c0 7.63 6.19 13.82 13.82 13.82s13.82-6.19 13.82-13.82-6.19-13.82-13.82-13.82c-7.64.01-13.82 6.19-13.82 13.82" clip-path="url(#prefix__SVGID_00000066517391832753278890000005667591640165868982_)" fill="#fff"/><path d="M2.02 86.78c0 7.63 6.19 13.82 13.82 13.82s13.82-6.19 13.82-13.82-6.19-13.82-13.82-13.82c-7.64.01-13.82 6.19-13.82 13.82z" clip-path="url(#prefix__SVGID_00000066517391832753278890000005667591640165868982_)" fill="none" stroke="#001b53" stroke-linecap="round" stroke-linejoin="round" stroke-miterlimit="10"/><path d="M28.45 92.42c2.03 2.88 5.39 4.76 9.18 4.76 6.2 0 11.23-5.03 11.23-11.23s-5.03-21.49-11.23-21.49c-4.5 0-8.39 8.06-10.18 14.85" clip-path="url(#prefix__SVGID_00000066517391832753278890000005667591640165868982_)" fill="#fff"/><path d="M28.45 92.42c2.03 2.88 5.39 4.76 9.18 4.76 6.2 0 11.23-5.03 11.23-11.23s-5.03-21.49-11.23-21.49c-4.5 0-8.39 8.06-10.18 14.85" clip-path="url(#prefix__SVGID_00000066517391832753278890000005667591640165868982_)" fill="none" stroke="#001b53" stroke-linecap="round" stroke-linejoin="round" stroke-miterlimit="10"/><path d="M2.02 86.78c0 7.63 6.19 13.82 13.82 13.82s13.82-6.19 13.82-13.82-6.19-13.82-13.82-13.82c-7.64.01-13.82 6.19-13.82 13.82zM15.83 86.78v33.72M21.73 88.15l-5.9 5.44M10.38 88.15l5.45 5.44M37.63 97.18v22.85" clip-path="url(#prefix__SVGID_00000066517391832753278890000005667591640165868982_)" fill="none" stroke="#001b53" stroke-linecap="round" stroke-linejoin="round" stroke-miterlimit="10"/><path d="M2.02 86.78c0 7.63 6.19 13.82 13.82 13.82s13.82-6.19 13.82-13.82-6.19-13.82-13.82-13.82c-7.64.01-13.82 6.19-13.82 13.82z" clip-path="url(#prefix__SVGID_00000066517391832753278890000005667591640165868982_)" fill="none" stroke="#001b53" stroke-linecap="round" stroke-linejoin="round" stroke-miterlimit="10"/><path d="M28.45 92.42c2.03 2.88 5.39 4.76 9.18 4.76 6.2 0 11.23-5.03 11.23-11.23s-5.03-21.49-11.23-21.49c-4.5 0-8.39 8.06-10.18 14.85" clip-path="url(#prefix__SVGID_00000066517391832753278890000005667591640165868982_)" fill="none" stroke="#001b53" stroke-linecap="round" stroke-linejoin="round" stroke-miterlimit="10"/></svg>