<svg version="1.1" id="prefix__Layer_1" xmlns="http://www.w3.org/2000/svg" x="0" y="0" viewBox="0 0 115.095 80.865" xml:space="preserve"><style>.prefix__st0{fill-rule:evenodd;clip-rule:evenodd;fill:#fff}</style><linearGradient id="prefix__SVGID_1_" gradientUnits="userSpaceOnUse" x1="-520.07" y1="-875.994" x2="-519.363" y2="-875.287"><stop offset="0" stop-color="#dedfe3"/><stop offset=".178" stop-color="#dadbdf"/><stop offset=".361" stop-color="#cecfd3"/><stop offset=".546" stop-color="#b9bcbf"/><stop offset=".732" stop-color="#9ca0a2"/><stop offset=".918" stop-color="#787d7e"/><stop offset="1" stop-color="#656b6c"/></linearGradient><path class="prefix__st0" d="M112.405 34.511h-.201l-2.691 2.692 2.79 2.791 2.792-2.792zM101.038 34.511l-5.485 5.485 2.791 2.791 5.584-5.584-2.692-2.692z"/><path transform="rotate(-45.001 84.384 53.957)" class="prefix__st0" d="M82.41 51.982h3.949v3.947H82.41z"/><path transform="rotate(-45.001 103.928 45.58)" class="prefix__st0" d="M101.954 43.605h3.949v3.947h-3.949z"/><path transform="rotate(-45.001 92.76 45.581)" class="prefix__st0" d="M90.786 43.606h3.949v3.947h-3.949z"/><path class="prefix__st0" d="M106.62 34.511l-2.692 2.692 2.792 2.792 2.793-2.792-2.692-2.692zM92.76 48.372l-5.584 5.584 2.792 2.792 2.792-2.792 2.792 2.791 5.583-5.584-2.791-2.791-2.792 2.792z"/><path class="prefix__st0" d="M84.384 56.748l-2.792 2.792 2.792 2.792-2.792 2.792-2.792-2.792 2.792-2.792-2.791-2.792-7.368 7.368-17.762-17.762H75.81c2.746 0 4.976-2.197 5.043-4.942.008-.325.012-.652.012-.98C80.865 17.58 61.905-.844 38.857.03 17.901.826.826 17.9.03 38.858c-.875 23.048 17.55 42.007 40.403 42.007a40.217 40.217 0 0023.472-7.52l7.53 7.52L92.76 59.54l-2.792-2.791-2.792 2.792-2.792-2.792zM40.433 69.023c-13.76 0-25.245-9.721-27.973-22.669a28.235 28.235 0 010-11.843c2.728-12.947 14.213-22.669 27.973-22.669s25.245 9.722 27.972 22.67H25.078l30.297 30.293a28.447 28.447 0 01-14.942 4.218z"/><path transform="rotate(-45.001 98.344 45.581)" class="prefix__st0" d="M96.37 43.605h3.949v3.949H96.37z"/></svg>