<svg version="1.1" id="prefix__Layer_1" xmlns="http://www.w3.org/2000/svg" xmlns:xlink="http://www.w3.org/1999/xlink" x="0" y="0" viewBox="0 0 281.817 80.865" xml:space="preserve"><style>.prefix__st0{fill:#dcdcdc}.prefix__st2{fill-rule:evenodd;clip-rule:evenodd;fill:#13a89d}</style><linearGradient id="prefix__SVGID_1_" gradientUnits="userSpaceOnUse" x1="-490.04" y1="-881.943" x2="-489.333" y2="-881.236"><stop offset="0" stop-color="#dedfe3"/><stop offset=".178" stop-color="#dadbdf"/><stop offset=".361" stop-color="#cecfd3"/><stop offset=".546" stop-color="#b9bcbf"/><stop offset=".732" stop-color="#9ca0a2"/><stop offset=".918" stop-color="#787d7e"/><stop offset="1" stop-color="#656b6c"/></linearGradient><path class="prefix__st0" d="M124.032 51.157c.209 4.705 2.509 6.847 6.636 6.847 2.98 0 5.384-1.829 5.854-3.5h6.533c-2.09 6.374-6.533 9.092-12.647 9.092-8.519 0-13.797-5.853-13.797-14.215 0-8.1 5.591-14.267 13.797-14.267 9.198 0 13.64 7.735 13.117 16.044h-19.493zm12.072-4.703c-.68-3.762-2.3-5.749-5.905-5.749-4.704 0-6.063 3.659-6.167 5.75h12.072zM145.827 35.845h7.054v3.764h.158c1.88-3.032 5.12-4.495 8.256-4.495 7.892 0 9.878 4.442 9.878 11.131v16.62h-7.422V47.603c0-4.442-1.305-6.637-4.755-6.637-4.024 0-5.749 2.247-5.749 7.735v14.163h-7.42v-27.02zM188.63 62.864h-8.257l-9.251-27.019h7.787l5.697 18.448h.105l5.696-18.448h7.369l-9.147 27.02zM197.412 44.155c.418-6.95 6.636-9.041 12.699-9.041 5.383 0 11.863 1.202 11.863 7.682v14.059c0 2.456.262 4.912.94 6.01h-7.525c-.26-.836-.47-1.725-.522-2.614-2.352 2.456-5.801 3.345-9.094 3.345-5.121 0-9.197-2.56-9.197-8.1 0-6.115 4.598-7.578 9.197-8.206 4.547-.678 8.78-.522 8.78-3.553 0-3.188-2.195-3.659-4.808-3.659-2.822 0-4.65 1.15-4.913 4.077h-7.42zm17.141 5.488c-1.255 1.097-3.867 1.15-6.167 1.567-2.3.47-4.39 1.254-4.39 3.972 0 2.77 2.143 3.45 4.547 3.45 5.801 0 6.01-4.6 6.01-6.22v-2.77zM249.935 62.864h-7.056v-3.762h-.156c-1.882 3.031-5.122 4.494-8.258 4.494-7.891 0-9.877-4.442-9.877-11.132V35.845h7.421v15.26c0 4.443 1.307 6.637 4.756 6.637 4.024 0 5.75-2.247 5.75-7.734V35.845h7.42v27.02zM253.7 25.55h7.42v37.315h-7.42V25.55zM276.382 35.845h5.435v4.965h-5.435v13.379c0 2.508.627 3.135 3.136 3.135.783 0 1.516-.051 2.299-.209v5.802c-1.254.21-2.874.26-4.338.26-4.546 0-8.519-1.044-8.519-6.427V40.81h-4.494v-4.965h4.494v-8.1h7.422v8.1z"/><g><path d="M12.46 34.511c2.728-12.948 14.213-22.669 27.973-22.669s25.245 9.722 27.972 22.67H25.078l11.845 11.842H75.81c2.745 0 4.976-2.197 5.043-4.942.008-.325.012-.652.012-.98C80.865 17.58 61.905-.844 38.857.03 17.901.826.826 17.9.03 38.857c-.875 23.048 17.55 42.008 40.403 42.008 8.755 0 16.855-2.789 23.472-7.52l-8.527-8.542a28.443 28.443 0 01-14.945 4.22c-13.76 0-25.246-9.721-27.973-22.67a28.235 28.235 0 010-11.842z" fill-rule="evenodd" clip-rule="evenodd" fill="#00aeef"/><path class="prefix__st2" d="M115.095 37.202l-2.69-2.691h-.201l-2.692 2.692 2.791 2.791zM103.928 37.203l-2.692-2.692h-.198l-5.485 5.485 2.791 2.791z"/><path transform="rotate(-45.001 84.384 53.957)" class="prefix__st2" d="M82.41 51.982h3.949v3.947H82.41z"/><path transform="rotate(-45.001 103.928 45.58)" class="prefix__st2" d="M101.953 43.605h3.949v3.947h-3.949z"/><path transform="rotate(-45.001 92.76 45.581)" class="prefix__st2" d="M90.786 43.606h3.949v3.947h-3.949z"/><path class="prefix__st2" d="M109.512 37.203l-2.692-2.692h-.2l-2.692 2.692 2.792 2.792zM92.76 53.956l2.791 2.791 5.584-5.584-2.791-2.792-2.792 2.793-2.792-2.793-5.584 5.585 2.792 2.792zM89.968 56.748l-2.792 2.792-2.792-2.792-2.792 2.792 2.792 2.792-2.792 2.792-2.792-2.792 2.792-2.792-2.792-2.792-7.367 7.368-29.604-29.605H25.081l46.354 46.354 21.324-21.326z"/><path transform="rotate(-45.001 98.344 45.58)" class="prefix__st2" d="M96.37 43.605h3.949v3.949H96.37z"/><g><defs><path id="prefix__SVGID_00000013899346456666895690000009176872362974431110_" d="M75.81 46.354c2.745 0 4.976-2.197 5.043-4.942.008-.326.012-.652.012-.98C80.865 17.58 61.905-.846 38.857.03 17.901.826.826 17.9.03 38.857c-.875 23.048 17.55 42.008 40.403 42.008 8.755 0 16.855-2.789 23.472-7.52l-8.535-8.537a28.41 28.41 0 01-14.937 4.215c-13.76 0-25.246-9.721-27.973-22.67h63.35zM40.433 11.842c13.759 0 25.245 9.721 27.972 22.67H12.46c2.727-12.948 14.213-22.67 27.973-22.67z"/></defs><clipPath id="prefix__SVGID_00000139267956057656494310000007550770282965387138_"><use xlink:href="#prefix__SVGID_00000013899346456666895690000009176872362974431110_" overflow="visible"/></clipPath><linearGradient id="prefix__SVGID_00000025436819807746677330000000434311036184925594_" gradientUnits="userSpaceOnUse" x1="-1035.719" y1="-66.436" x2="-971.948" y2="-66.436" gradientTransform="matrix(.2109 -.2109 .9026 .9026 320.628 -79.947)"><stop offset="0" stop-color="#001b54" stop-opacity="0"/><stop offset="1" stop-color="#001b54"/></linearGradient><path opacity=".7" clip-path="url(#prefix__SVGID_00000139267956057656494310000007550770282965387138_)" fill-rule="evenodd" clip-rule="evenodd" fill="url(#prefix__SVGID_00000025436819807746677330000000434311036184925594_)" d="M63.897 73.35l-5.894 20.993-31.599-31.599 28.966 2.064z"/><linearGradient id="prefix__SVGID_00000116941090990704405100000006721901770158750112_" gradientUnits="userSpaceOnUse" x1="911.077" y1="-634.376" x2="975.192" y2="-634.376" gradientTransform="rotate(135.003 57.069 -493.362) scale(.4644 1.3681)"><stop offset="0" stop-color="#a6ce39" stop-opacity="0"/><stop offset=".644" stop-color="#a6ce39"/></linearGradient><path clip-path="url(#prefix__SVGID_00000139267956057656494310000007550770282965387138_)" fill-rule="evenodd" clip-rule="evenodd" fill="url(#prefix__SVGID_00000116941090990704405100000006721901770158750112_)" d="M24.939 34.381l21.058-21.058 33.862 33.862-21.058 21.058z"/></g><g><defs><path id="prefix__SVGID_00000036957007109254434510000012988922015760488841_" d="M71.433 64.116L41.826 34.509H25.078l46.357 46.356z"/></defs><clipPath id="prefix__SVGID_00000093157873530781565350000013565497495548571811_"><use xlink:href="#prefix__SVGID_00000036957007109254434510000012988922015760488841_" overflow="visible"/></clipPath><linearGradient id="prefix__SVGID_00000183217593382819827340000005446823780579302323_" gradientUnits="userSpaceOnUse" x1="-1890.592" y1="-487.891" x2="-1852.966" y2="-487.891" gradientTransform="matrix(0 -.482 1.4856 0 776.075 -847.183)"><stop offset="0" stop-color="#a6ce39" stop-opacity="0"/><stop offset="1" stop-color="#a6ce39"/></linearGradient><path clip-path="url(#prefix__SVGID_00000093157873530781565350000013565497495548571811_)" fill-rule="evenodd" clip-rule="evenodd" fill="url(#prefix__SVGID_00000183217593382819827340000005446823780579302323_)" d="M71.433 45.979v18.137h-40.29V45.979z"/></g></g></svg>