<svg version="1.1" id="prefix__Layer_1" xmlns="http://www.w3.org/2000/svg" xmlns:xlink="http://www.w3.org/1999/xlink" x="0" y="0" viewBox="0 0 70.309 7.93" xml:space="preserve"><style>.prefix__st0{fill:#dcdcdc}.prefix__st2{fill-rule:evenodd;clip-rule:evenodd;fill:#13a89d}</style><linearGradient id="prefix__SVGID_1_" gradientUnits="userSpaceOnUse" x1="-569.267" y1="-911.66" x2="-568.56" y2="-910.953"><stop offset="0" stop-color="#dedfe3"/><stop offset=".178" stop-color="#dadbdf"/><stop offset=".361" stop-color="#cecfd3"/><stop offset=".546" stop-color="#b9bcbf"/><stop offset=".732" stop-color="#9ca0a2"/><stop offset=".918" stop-color="#787d7e"/><stop offset="1" stop-color="#656b6c"/></linearGradient><path class="prefix__st0" d="M49.18 4.723c.029.622.333.906.879.906.394 0 .712-.242.774-.463h.864c-.276.843-.864 1.202-1.673 1.202-1.127 0-1.825-.774-1.825-1.88 0-1.071.74-1.887 1.825-1.887 1.217 0 1.804 1.023 1.736 2.122h-2.58zm1.597-.622c-.09-.497-.303-.76-.78-.76-.622 0-.802.484-.816.76h1.596zM52.06 2.698h.934v.498h.02c.25-.401.678-.595 1.092-.595 1.044 0 1.307.588 1.307 1.473v2.198h-.981V4.253c0-.587-.173-.877-.63-.877-.532 0-.76.297-.76 1.023v1.873h-.981V2.698zM57.719 6.272h-1.093l-1.224-3.574h1.03l.754 2.44h.014l.753-2.44h.975l-1.21 3.574zM59.016 3.797c.054-.92.878-1.196 1.68-1.196.711 0 1.568.16 1.568 1.016v1.86c0 .324.035.65.125.795h-.995a1.42 1.42 0 01-.07-.346c-.311.325-.767.442-1.203.442-.677 0-1.217-.338-1.217-1.07 0-.81.609-1.003 1.217-1.086.602-.09 1.161-.07 1.161-.47 0-.422-.29-.484-.635-.484-.373 0-.616.152-.65.54h-.981zm2.266.726c-.165.145-.51.152-.815.207-.304.063-.58.166-.58.526 0 .366.283.456.6.456.768 0 .795-.608.795-.823v-.366zM66.097 6.272h-.933v-.498h-.021c-.248.401-.677.594-1.092.594-1.044 0-1.307-.587-1.307-1.472V2.698h.982v2.019c0 .587.172.878.628.878.533 0 .761-.298.761-1.023V2.698h.982v3.574zM66.592 1.336h.981v4.936h-.981V1.336zM69.59 2.698h.719v.657h-.72v1.77c0 .331.084.414.416.414.103 0 .2-.007.304-.027v.767c-.165.027-.38.034-.574.034-.601 0-1.127-.138-1.127-.85V3.355h-.594v-.657h.594V1.627h.982v1.071z"/><g><path class="prefix__st0" d="M0 2.697h.588v.484h.014c.193-.394.649-.567 1.14-.567 1.099 0 1.646.872 1.646 1.88s-.54 1.86-1.632 1.86c-.366 0-.892-.138-1.154-.56H.588V7.64H0V2.698zm1.66.436C.87 3.133.566 3.81.566 4.481c0 .705.318 1.355 1.126 1.355.802 0 1.072-.685 1.072-1.383 0-.67-.345-1.32-1.106-1.32zM5.344 2.615c1.134 0 1.735.822 1.735 1.873 0 1.043-.601 1.866-1.735 1.866-1.133 0-1.735-.823-1.735-1.866 0-1.05.602-1.874 1.735-1.874zm0 3.22c.615 0 1.113-.483 1.113-1.347 0-.871-.498-1.355-1.113-1.355S4.23 3.617 4.23 4.488c0 .864.498 1.348 1.113 1.348zM10.896 6.271h-.622l-.725-2.84h-.014l-.72 2.84H8.18L7.032 2.697h.65l.81 2.924h.013l.719-2.924h.642l.747 2.924h.014l.802-2.924h.608l-1.14 3.574zM15.231 5.137c-.158.789-.725 1.217-1.527 1.217-1.14 0-1.68-.788-1.714-1.88 0-1.071.705-1.86 1.68-1.86 1.265 0 1.651 1.183 1.617 2.047h-2.675c-.02.622.332 1.175 1.113 1.175.484 0 .823-.235.926-.699h.58zm-.566-.995c-.027-.56-.45-1.009-1.03-1.009-.616 0-.982.463-1.023 1.01h2.053zM15.738 2.697h.553v.754h.014c.283-.574.677-.857 1.313-.837v.623c-.947 0-1.293.54-1.293 1.444v1.59h-.587V2.697z"/><path class="prefix__st0" d="M20.57 5.137c-.159.789-.726 1.217-1.528 1.217-1.14 0-1.68-.788-1.714-1.88 0-1.071.705-1.86 1.68-1.86 1.264 0 1.651 1.183 1.617 2.047H17.95c-.02.622.332 1.175 1.112 1.175.485 0 .824-.235.927-.699h.58zm-.567-.995c-.027-.56-.45-1.009-1.03-1.009-.616 0-.982.463-1.023 1.01h2.053zM24.29 6.271h-.588v-.484h-.014c-.193.394-.649.567-1.14.567-1.099 0-1.645-.87-1.645-1.88 0-1.009.54-1.86 1.631-1.86.366 0 .892.139 1.154.56h.014V1.337h.588V6.27zm-1.66-.435c.789 0 1.094-.678 1.094-1.348 0-.705-.319-1.355-1.127-1.355-.802 0-1.072.685-1.072 1.382 0 .67.346 1.32 1.106 1.32zM26.586 1.336h.588V3.18h.014c.193-.394.649-.567 1.14-.567 1.099 0 1.646.872 1.646 1.88s-.54 1.86-1.632 1.86c-.366 0-.892-.138-1.154-.56h-.014v.477h-.588V1.336zm1.66 1.797c-.789 0-1.093.677-1.093 1.348 0 .705.318 1.355 1.126 1.355.802 0 1.072-.685 1.072-1.383 0-.67-.345-1.32-1.106-1.32z"/><path class="prefix__st0" d="M31.654 6.748c-.27.699-.511.954-1.037.954-.138 0-.276-.014-.407-.062V7.1c.11.035.228.084.345.084.242 0 .374-.118.484-.325l.242-.608-1.417-3.554h.663l1.044 2.924h.014l1.002-2.924h.622l-1.555 4.051z"/></g><g><path d="M37.322 3.384a2.804 2.804 0 015.486 0H38.56l1.161 1.161h3.813c.27 0 .488-.215.495-.484l.001-.096A3.965 3.965 0 0039.91.003a3.981 3.981 0 00-3.806 3.807 3.965 3.965 0 006.263 3.382l-.836-.837a2.804 2.804 0 01-4.209-2.97z" fill-rule="evenodd" clip-rule="evenodd" fill="#00aeef"/><path class="prefix__st2" d="M47.387 3.648l-.264-.264h-.02l-.264.264.274.274zM46.292 3.648l-.264-.264h-.02l-.538.538.274.274z"/><path transform="rotate(-45.001 44.375 5.291)" class="prefix__st2" d="M44.181 5.097h.387v.387h-.387z"/><path transform="rotate(-45.001 46.292 4.47)" class="prefix__st2" d="M46.098 4.276h.387v.387h-.387z"/><path transform="rotate(-45.001 45.197 4.47)" class="prefix__st2" d="M45.003 4.276h.387v.387h-.387z"/><path class="prefix__st2" d="M46.839 3.648l-.264-.264h-.019l-.264.264.273.274zM45.196 5.291l.274.273.548-.547-.274-.274-.274.274-.274-.274-.547.548.274.274zM44.923 5.565l-.274.273-.274-.273-.274.273.274.274-.274.274-.273-.274.273-.274-.273-.273-.723.722-2.903-2.903H38.56l4.545 4.546 2.091-2.092z"/><path transform="rotate(-45.001 45.744 4.47)" class="prefix__st2" d="M45.55 4.276h.387v.387h-.387z"/><g><defs><path id="prefix__SVGID_00000164478831438151583630000007126718426978709645_" d="M43.534 4.545c.27 0 .488-.215.495-.484l.001-.096A3.965 3.965 0 0039.91.003a3.981 3.981 0 00-3.807 3.807 3.965 3.965 0 006.264 3.382l-.837-.837a2.804 2.804 0 01-4.208-1.81h6.212zm-3.469-3.384c1.35 0 2.476.953 2.743 2.223h-5.486a2.804 2.804 0 012.743-2.223z"/></defs><clipPath id="prefix__SVGID_00000098913415753594119070000016256888872641633201_"><use xlink:href="#prefix__SVGID_00000164478831438151583630000007126718426978709645_" overflow="visible"/></clipPath><linearGradient id="prefix__SVGID_00000145025231094554448280000013494099634479325323_" gradientUnits="userSpaceOnUse" x1="-834.309" y1="-76.135" x2="-828.056" y2="-76.135" gradientTransform="matrix(.2109 -.2109 .9026 .9026 284.936 -99.552)"><stop offset="0" stop-color="#001b54" stop-opacity="0"/><stop offset="1" stop-color="#001b54"/></linearGradient><path opacity=".7" clip-path="url(#prefix__SVGID_00000098913415753594119070000016256888872641633201_)" fill-rule="evenodd" clip-rule="evenodd" fill="url(#prefix__SVGID_00000145025231094554448280000013494099634479325323_)" d="M42.366 7.193l-.578 2.058-3.098-3.098 2.84.202z"/><linearGradient id="prefix__SVGID_00000103972753348692035160000004924000261790866864_" gradientUnits="userSpaceOnUse" x1="746.385" y1="-695.626" x2="752.672" y2="-695.626" gradientTransform="matrix(-.3284 .3284 -.9673 -.9673 -385.45 -915.04)"><stop offset="0" stop-color="#a6ce39" stop-opacity="0"/><stop offset=".644" stop-color="#a6ce39"/></linearGradient><path clip-path="url(#prefix__SVGID_00000098913415753594119070000016256888872641633201_)" fill-rule="evenodd" clip-rule="evenodd" fill="url(#prefix__SVGID_00000103972753348692035160000004924000261790866864_)" d="M38.546 3.371l2.065-2.065 3.32 3.321-2.064 2.065z"/></g><g><defs><path id="prefix__SVGID_00000070117116061757800420000008921539697898198935_" d="M43.105 6.287l-2.903-2.903H38.56l4.545 4.546z"/></defs><clipPath id="prefix__SVGID_00000150088259317143375170000008116488145924276867_"><use xlink:href="#prefix__SVGID_00000070117116061757800420000008921539697898198935_" overflow="visible"/></clipPath><linearGradient id="prefix__SVGID_00000022536174831577143950000012005224575263856014_" gradientUnits="userSpaceOnUse" x1="-1911.499" y1="-471.115" x2="-1907.81" y2="-471.115" gradientTransform="matrix(0 -.482 1.4856 0 740.995 -915.09)"><stop offset="0" stop-color="#a6ce39" stop-opacity="0"/><stop offset="1" stop-color="#a6ce39"/></linearGradient><path clip-path="url(#prefix__SVGID_00000150088259317143375170000008116488145924276867_)" fill-rule="evenodd" clip-rule="evenodd" fill="url(#prefix__SVGID_00000022536174831577143950000012005224575263856014_)" d="M43.105 4.509v1.778h-3.951V4.509z"/></g></g></svg>