<svg version="1.1" id="prefix__Layer_1" xmlns="http://www.w3.org/2000/svg" xmlns:xlink="http://www.w3.org/1999/xlink" x="0" y="0" viewBox="0 0 165.206 119.738" xml:space="preserve"><style>.prefix__st0{fill:#dcdcdc}.prefix__st2{fill-rule:evenodd;clip-rule:evenodd;fill:#13a89d}</style><linearGradient id="prefix__SVGID_1_" gradientUnits="userSpaceOnUse" x1="-523.98" y1="-859.788" x2="-523.273" y2="-859.081"><stop offset="0" stop-color="#dedfe3"/><stop offset=".178" stop-color="#dadbdf"/><stop offset=".361" stop-color="#cecfd3"/><stop offset=".546" stop-color="#b9bcbf"/><stop offset=".732" stop-color="#9ca0a2"/><stop offset=".918" stop-color="#787d7e"/><stop offset="1" stop-color="#656b6c"/></linearGradient><path class="prefix__st0" d="M7.42 107.3c.21 4.704 2.51 6.846 6.639 6.846 2.978 0 5.382-1.829 5.853-3.501h6.532c-2.09 6.376-6.532 9.093-12.647 9.093C5.278 119.738 0 113.885 0 105.523c0-8.1 5.592-14.267 13.797-14.267 9.198 0 13.64 7.735 13.118 16.044H7.421zm12.074-4.703c-.68-3.763-2.3-5.749-5.906-5.749-4.703 0-6.063 3.658-6.167 5.749h12.073zM29.216 91.988h7.056v3.762h.156c1.882-3.03 5.122-4.494 8.258-4.494 7.891 0 9.877 4.442 9.877 11.132v16.619h-7.421v-15.26c0-4.443-1.307-6.638-4.756-6.638-4.025 0-5.75 2.247-5.75 7.735v14.163h-7.42v-27.02zM72.02 119.007h-8.258l-9.25-27.02h7.787l5.696 18.449h.105l5.696-18.448h7.369l-9.146 27.019zM80.8 100.297c.419-6.95 6.638-9.041 12.7-9.041 5.383 0 11.863 1.202 11.863 7.682v14.058c0 2.457.261 4.913.94 6.01h-7.525c-.261-.835-.47-1.724-.522-2.613-2.352 2.457-5.802 3.345-9.094 3.345-5.122 0-9.198-2.56-9.198-8.1 0-6.115 4.6-7.578 9.198-8.205 4.547-.68 8.78-.523 8.78-3.554 0-3.188-2.195-3.658-4.808-3.658-2.823 0-4.652 1.15-4.912 4.076H80.8zm17.142 5.488c-1.254 1.097-3.868 1.15-6.167 1.568-2.3.47-4.39 1.254-4.39 3.971 0 2.77 2.143 3.45 4.547 3.45 5.801 0 6.01-4.6 6.01-6.22v-2.77zM133.324 119.007h-7.055v-3.763h-.157c-1.882 3.031-5.122 4.494-8.257 4.494-7.891 0-9.877-4.442-9.877-11.131v-16.62h7.42v15.261c0 4.442 1.307 6.637 4.756 6.637 4.025 0 5.75-2.247 5.75-7.735V91.988h7.42v27.019zM137.089 81.692h7.42v37.315h-7.42V81.692zM159.77 91.988h5.436v4.965h-5.436v13.378c0 2.509.628 3.136 3.136 3.136.784 0 1.516-.052 2.3-.209v5.8c-1.254.21-2.874.262-4.338.262-4.547 0-8.518-1.045-8.518-6.428v-15.94h-4.495v-4.964h4.495v-8.1h7.42v8.1z"/><g><path d="M45.987 34.511C48.715 21.563 60.2 11.842 73.96 11.842s25.245 9.722 27.972 22.67H58.605L70.45 46.353h38.887c2.745 0 4.976-2.197 5.043-4.942.008-.325.012-.652.012-.98 0-22.853-18.96-41.277-42.008-40.402C51.428.826 34.353 17.9 33.557 38.857c-.875 23.048 17.55 42.008 40.403 42.008 8.755 0 16.855-2.789 23.472-7.52l-8.527-8.542a28.443 28.443 0 01-14.945 4.22c-13.76 0-25.245-9.721-27.973-22.67a28.232 28.232 0 010-11.842z" fill-rule="evenodd" clip-rule="evenodd" fill="#00aeef"/><path class="prefix__st2" d="M148.622 37.202l-2.69-2.691h-.201l-2.692 2.692 2.791 2.791zM137.455 37.203l-2.692-2.692h-.198l-5.485 5.485 2.791 2.791z"/><path transform="rotate(-45.001 117.911 53.958)" class="prefix__st2" d="M115.937 51.982h3.949v3.947h-3.949z"/><path transform="rotate(-45.001 137.455 45.58)" class="prefix__st2" d="M135.481 43.605h3.949v3.947h-3.949z"/><path transform="rotate(-45.001 126.287 45.582)" class="prefix__st2" d="M124.313 43.606h3.949v3.947h-3.949z"/><path class="prefix__st2" d="M143.039 37.203l-2.692-2.692h-.2l-2.692 2.692 2.792 2.792zM126.287 53.956l2.791 2.791 5.584-5.584-2.791-2.792-2.792 2.793-2.792-2.793-5.584 5.585 2.792 2.792zM123.495 56.748l-2.792 2.792-2.792-2.792-2.792 2.792 2.792 2.792-2.792 2.792-2.792-2.792 2.792-2.792-2.791-2.792-7.368 7.368-29.604-29.605H58.608l46.354 46.354 21.324-21.326z"/><path transform="rotate(-45.001 131.871 45.581)" class="prefix__st2" d="M129.897 43.605h3.949v3.949h-3.949z"/><g><defs><path id="prefix__SVGID_00000139251999141836082090000013011661363281378226_" d="M109.337 46.354c2.745 0 4.976-2.197 5.043-4.942.008-.326.012-.652.012-.98 0-22.853-18.96-41.278-42.008-40.402C51.428.826 34.353 17.9 33.557 38.857c-.875 23.048 17.55 42.008 40.403 42.008 8.755 0 16.855-2.789 23.472-7.52l-8.535-8.537a28.41 28.41 0 01-14.937 4.215c-13.76 0-25.245-9.721-27.973-22.67h63.35zM73.96 11.842c13.76 0 25.245 9.721 27.972 22.67H45.987c2.728-12.948 14.213-22.67 27.973-22.67z"/></defs><clipPath id="prefix__SVGID_00000057849232969669203420000017592762919612532393_"><use xlink:href="#prefix__SVGID_00000139251999141836082090000013011661363281378226_" overflow="visible"/></clipPath><linearGradient id="prefix__SVGID_00000116237550896640631460000009002296249935731340_" gradientUnits="userSpaceOnUse" x1="-857.21" y1="-19.181" x2="-793.439" y2="-19.181" gradientTransform="matrix(.2109 -.2109 .9026 .9026 273.85 -84.949)"><stop offset="0" stop-color="#001b54" stop-opacity="0"/><stop offset="1" stop-color="#001b54"/></linearGradient><path opacity=".7" clip-path="url(#prefix__SVGID_00000057849232969669203420000017592762919612532393_)" fill-rule="evenodd" clip-rule="evenodd" fill="url(#prefix__SVGID_00000116237550896640631460000009002296249935731340_)" d="M97.424 73.35L91.53 94.343 59.932 62.744l28.965 2.064z"/><linearGradient id="prefix__SVGID_00000018200381813839257410000011348760369132577680_" gradientUnits="userSpaceOnUse" x1="740.702" y1="-635.644" x2="804.817" y2="-635.644" gradientTransform="rotate(135.003 33.905 -470.897) scale(.4644 1.3681)"><stop offset="0" stop-color="#a6ce39" stop-opacity="0"/><stop offset=".644" stop-color="#a6ce39"/></linearGradient><path clip-path="url(#prefix__SVGID_00000057849232969669203420000017592762919612532393_)" fill-rule="evenodd" clip-rule="evenodd" fill="url(#prefix__SVGID_00000018200381813839257410000011348760369132577680_)" d="M58.466 34.381l21.058-21.058 33.862 33.862-21.058 21.058z"/></g><g><defs><path id="prefix__SVGID_00000173877213878759878960000010498893337327290043_" d="M104.96 64.116L75.353 34.509H58.605l46.357 46.356z"/></defs><clipPath id="prefix__SVGID_00000145755982603609729530000013312361078811091854_"><use xlink:href="#prefix__SVGID_00000173877213878759878960000010498893337327290043_" overflow="visible"/></clipPath><linearGradient id="prefix__SVGID_00000122689445305905881210000004997506005553416354_" gradientUnits="userSpaceOnUse" x1="-1878.57" y1="-420.321" x2="-1840.944" y2="-420.321" gradientTransform="matrix(0 -.482 1.4856 0 709.224 -841.389)"><stop offset="0" stop-color="#a6ce39" stop-opacity="0"/><stop offset="1" stop-color="#a6ce39"/></linearGradient><path clip-path="url(#prefix__SVGID_00000145755982603609729530000013312361078811091854_)" fill-rule="evenodd" clip-rule="evenodd" fill="url(#prefix__SVGID_00000122689445305905881210000004997506005553416354_)" d="M104.96 45.979v18.137H64.67V45.979z"/></g></g></svg>