<svg version="1.1" id="prefix__Layer_1" xmlns="http://www.w3.org/2000/svg" xmlns:xlink="http://www.w3.org/1999/xlink" x="0" y="0" viewBox="0 0 207.6 151.67" xml:space="preserve"><style>.prefix__st3{fill-rule:evenodd;clip-rule:evenodd;fill:#a5ce3a}</style><defs><path id="prefix__SVGID_1_" d="M0 0h207.6v151.67H0z"/></defs><clipPath id="prefix__SVGID_00000040573681929047847670000015522905843015339688_"><use xlink:href="#prefix__SVGID_1_" overflow="visible"/></clipPath><path d="M148.75 100.4V44c0-3.15-2.29-5.7-5.12-5.7H61.76c-2.83 0-5.12 2.55-5.12 5.7v57.11" clip-path="url(#prefix__SVGID_00000040573681929047847670000015522905843015339688_)" fill="#fff"/><path d="M148.75 100.4V44c0-3.15-2.29-5.7-5.12-5.7H61.76c-2.83 0-5.12 2.55-5.12 5.7v57.11" clip-path="url(#prefix__SVGID_00000040573681929047847670000015522905843015339688_)" fill="none" stroke="#001b53" stroke-linecap="round" stroke-linejoin="round" stroke-miterlimit="10"/><path d="M114.24 95.3c0 2.62-2.12 4.75-4.75 4.75H95.96c-2.62 0-4.75-2.13-4.75-4.75 0-.28-.23-.51-.51-.51H50.1v3.95c0 4.74 3.84 8.57 8.57 8.57h88.26c4.74 0 8.57-3.84 8.57-8.57v-3.95h-40.77c-.26 0-.49.23-.49.51" clip-path="url(#prefix__SVGID_00000040573681929047847670000015522905843015339688_)" fill="#fff"/><path clip-path="url(#prefix__SVGID_00000040573681929047847670000015522905843015339688_)" fill="none" stroke="#001b53" stroke-linecap="round" stroke-linejoin="round" stroke-miterlimit="10" d="M67.13 83.78V48.23h71.33v35.55M114.24 95.3h0c0 2.62-2.12 4.75-4.75 4.75H95.96c-2.62 0-4.75-2.13-4.75-4.75 0-.28-.23-.51-.51-.51H50.1v3.95c0 4.74 3.84 8.57 8.57 8.57h88.26c4.74 0 8.57-3.84 8.57-8.57v-3.95h-40.77c-.26 0-.49.23-.49.51z"/><g clip-path="url(#prefix__SVGID_00000040573681929047847670000015522905843015339688_)"><path class="prefix__st3" d="M92.73 68.61a9.354 9.354 0 0118.3 0H96.85l3.88 3.87h12.72c.9 0 1.63-.72 1.65-1.62v-.32c0-7.48-6.2-13.5-13.74-13.22-6.85.26-12.44 5.85-12.7 12.7-.29 7.54 5.74 13.74 13.22 13.74 2.86 0 5.51-.91 7.68-2.46l-2.79-2.79a9.35 9.35 0 01-4.89 1.38c-4.5 0-8.26-3.18-9.15-7.42a8.974 8.974 0 010-3.86M126.3 69.5l-.88-.88h-.07l-.88.88.92.91zM122.65 69.5l-.88-.89h-.07l-1.79 1.8.91.91z"/><path transform="rotate(-45.001 116.255 74.977)" class="prefix__st3" d="M115.61 74.33h1.29v1.29h-1.29z"/><path transform="rotate(-45.001 122.648 72.237)" class="prefix__st3" d="M122 71.59h1.29v1.29H122z"/><path transform="rotate(-45.001 118.995 72.237)" class="prefix__st3" d="M118.35 71.59h1.29v1.29h-1.29z"/><path class="prefix__st3" d="M124.47 69.5l-.88-.89h-.06l-.88.89.91.91zM118.99 74.98l.92.91 1.82-1.83-.91-.91-.91.91-.92-.91-1.82 1.83.91.91zM118.08 75.89l-.91.91-.92-.91-.91.91.91.92-.91.91-.91-.91.91-.92-.91-.91-2.41 2.41-9.69-9.69h-5.47l15.16 15.17 6.97-6.98z"/><path transform="rotate(-45.001 120.822 72.237)" class="prefix__st3" d="M120.18 71.59h1.29v1.29h-1.29z"/></g><path d="M91.27 4.85c0 1.01-.82 1.84-1.84 1.84-1.01 0-1.84-.82-1.84-1.84 0-1.01.82-1.84 1.84-1.84s1.84.82 1.84 1.84z" clip-path="url(#prefix__SVGID_00000040573681929047847670000015522905843015339688_)" fill="none" stroke="#a5ce3a" stroke-width="2" stroke-linecap="round" stroke-linejoin="round" stroke-miterlimit="10"/><circle cx="103.38" cy="25.99" r="3.52" clip-path="url(#prefix__SVGID_00000040573681929047847670000015522905843015339688_)" fill="none" stroke="#001b53" stroke-linecap="round" stroke-linejoin="round" stroke-miterlimit="10"/><path d="M91.54 20.49s3.99-5.69 11.82-5.69 11.78 5.69 11.78 5.69" clip-path="url(#prefix__SVGID_00000040573681929047847670000015522905843015339688_)" fill="none" stroke="#001b53" stroke-linecap="round" stroke-linejoin="round" stroke-miterlimit="10"/><path d="M87.09 16.04s6.52-7.88 16.27-7.88 16.23 7.88 16.23 7.88M93.56 3.19C96.45 1.92 99.77 1 103.36 1c11.78 0 20.69 9.88 20.69 9.88M81.58 12.09s1.66-1.84 4.5-3.94" clip-path="url(#prefix__SVGID_00000040573681929047847670000015522905843015339688_)" fill="none" stroke="#001b53" stroke-linecap="round" stroke-linejoin="round" stroke-miterlimit="10"/><path d="M74.66 139.48a3.16 3.16 0 013.16 3.16c0 1.74-1.42 3.16-3.16 3.16-1.75 0-3.16-1.41-3.16-3.16 0-1.75 1.41-3.16 3.16-3.16zM104.44 144.35a3.16 3.16 0 013.16 3.16c0 1.74-1.42 3.16-3.16 3.16-1.75 0-3.16-1.41-3.16-3.16 0-1.74 1.42-3.16 3.16-3.16zM120.08 141.32a3.16 3.16 0 013.16 3.16c0 1.74-1.42 3.16-3.16 3.16a3.16 3.16 0 010-6.32z" clip-path="url(#prefix__SVGID_00000040573681929047847670000015522905843015339688_)" fill="none" stroke="#001b53" stroke-width="2" stroke-linecap="round" stroke-linejoin="round" stroke-miterlimit="10"/><path clip-path="url(#prefix__SVGID_00000040573681929047847670000015522905843015339688_)" fill="none" stroke="#001b53" stroke-linecap="round" stroke-linejoin="round" stroke-miterlimit="10" d="M78.47 142.64h19.6v-34.81M104.44 144.35v-36.52M120.08 141.32v-5.57h-9.16v-27.92"/><path clip-path="url(#prefix__SVGID_00000040573681929047847670000015522905843015339688_)" fill="none" stroke="#001b53" stroke-linecap="round" stroke-linejoin="round" stroke-miterlimit="10" d="M117.32 108.12v20.61H200.28"/><path d="M203.44 124.57a3.16 3.16 0 100 6.32 3.16 3.16 0 000-6.32" clip-path="url(#prefix__SVGID_00000040573681929047847670000015522905843015339688_)" fill="#fff"/><path d="M203.44 124.57a3.16 3.16 0 100 6.32 3.16 3.16 0 000-6.32z" clip-path="url(#prefix__SVGID_00000040573681929047847670000015522905843015339688_)" fill="none" stroke="#a5ce3a" stroke-width="2" stroke-linecap="round" stroke-linejoin="round" stroke-miterlimit="10"/><path clip-path="url(#prefix__SVGID_00000040573681929047847670000015522905843015339688_)" fill="none" stroke="#001b53" stroke-linecap="round" stroke-linejoin="round" stroke-miterlimit="10" d="M90.28 108.32v20.61H7.32"/><path d="M4.16 125.78c1.74 0 3.16 1.42 3.16 3.16a3.16 3.16 0 11-3.16-3.16" clip-path="url(#prefix__SVGID_00000040573681929047847670000015522905843015339688_)" fill="#fff"/><path d="M4.16 125.78c1.74 0 3.16 1.42 3.16 3.16a3.16 3.16 0 11-3.16-3.16z" clip-path="url(#prefix__SVGID_00000040573681929047847670000015522905843015339688_)" fill="none" stroke="#a5ce3a" stroke-width="2" stroke-linecap="round" stroke-linejoin="round" stroke-miterlimit="10"/><path d="M91.27 4.85c0 1.01-.82 1.84-1.84 1.84-1.01 0-1.84-.82-1.84-1.84 0-1.01.82-1.84 1.84-1.84s1.84.82 1.84 1.84z" clip-path="url(#prefix__SVGID_00000040573681929047847670000015522905843015339688_)" fill="#fff"/></svg>