<svg version="1.1" id="prefix__Layer_1" xmlns="http://www.w3.org/2000/svg" x="0" y="0" viewBox="0 0 78.81 77.66" xml:space="preserve"><style>.prefix__st0{fill:none;stroke:#001b54;stroke-width:2;stroke-linecap:round;stroke-linejoin:round;stroke-miterlimit:10}.prefix__st1{fill-rule:evenodd;clip-rule:evenodd;fill:#00aeef}</style><path class="prefix__st0" d="M26.49 25.09h26.39v26.39H26.49z"/><path class="prefix__st1" d="M33.83 37.25a4.976 4.976 0 019.74 0h-7.55l2.06 2.06h6.77c.48 0 .87-.38.88-.86v-.17c0-3.98-3.3-7.19-7.32-7.04-3.65.14-6.63 3.11-6.76 6.76a7.046 7.046 0 0011.13 6.01l-1.49-1.49a4.968 4.968 0 01-7.47-3.21 5.29 5.29 0 01.01-2.06zM51.71 37.72l-.47-.47h-.03l-.47.47.49.49zM49.77 37.72l-.47-.47h-.04l-.95.96.48.48z"/><path transform="rotate(-45.001 46.361 40.64)" class="prefix__st1" d="M46.02 40.3h.69v.69h-.69z"/><path transform="rotate(-45.001 49.766 39.18)" class="prefix__st1" d="M49.42 38.84h.69v.69h-.69z"/><path transform="rotate(-45.001 47.82 39.18)" class="prefix__st1" d="M47.48 38.84h.69v.69h-.69z"/><path class="prefix__st1" d="M50.74 37.72l-.47-.47h-.03l-.47.47.48.49zM47.82 40.64l.49.49.97-.98-.49-.48-.48.48-.49-.48-.97.97.48.49z"/><path class="prefix__st1" d="M47.33 41.13l-.48.48-.49-.48-.48.48.48.49-.48.48-.49-.48.49-.49-.49-.48-1.28 1.28-5.16-5.16h-2.92l8.08 8.08 3.71-3.72z"/><path transform="rotate(-45.001 48.793 39.18)" class="prefix__st1" d="M48.45 38.84h.69v.69h-.69z"/><path class="prefix__st0" d="M26.49 19.52V7.91M39.69 19.52V7.91M52.88 19.52V7.91M26.49 69.32V57.71M39.69 69.32V57.71M52.88 69.32V57.71M55.26 56.72H24.11a2.86 2.86 0 01-2.86-2.86V22.71a2.86 2.86 0 012.86-2.86h31.15a2.86 2.86 0 012.86 2.86v31.15c.01 1.58-1.28 2.86-2.86 2.86zM58.96 24.48l11.61.11M58.84 37.68l11.61.1M58.72 50.87l11.61.11M9.14 24.48l11.61.11M9.02 37.68l11.61.1M8.9 50.87l11.61.11"/><g><circle class="prefix__st0" cx="4.45" cy="24.44" r="3.45"/><circle class="prefix__st0" cx="4.45" cy="37.73" r="3.45"/><circle class="prefix__st0" cx="4.45" cy="50.83" r="3.45"/><circle class="prefix__st0" cx="52.88" cy="73.21" r="3.45"/><circle class="prefix__st0" cx="39.69" cy="73.21" r="3.45"/><circle class="prefix__st0" cx="26.49" cy="73.21" r="3.45"/><circle class="prefix__st0" cx="52.88" cy="4.45" r="3.45"/><circle class="prefix__st0" cx="39.69" cy="4.45" r="3.45"/><circle class="prefix__st0" cx="26.49" cy="4.45" r="3.45"/><circle class="prefix__st0" cx="74.36" cy="24.44" r="3.45"/><circle class="prefix__st0" cx="74.36" cy="37.73" r="3.45"/><circle class="prefix__st0" cx="74.36" cy="50.83" r="3.45"/></g></svg>