<svg version="1.1" id="prefix__Layer_1" xmlns="http://www.w3.org/2000/svg" x="0" y="0" viewBox="0 0 77.4 60.97" xml:space="preserve"><style>.prefix__st0,.prefix__st1{fill:none;stroke:#001b54;stroke-width:2;stroke-linecap:round;stroke-linejoin:round;stroke-miterlimit:10}.prefix__st1{stroke:#13a89e}</style><path class="prefix__st0" d="M51.5 9.57L40.62 6.34M20.65 8.59L10.5 4.73M56.86 8.59l10.1-4.51M25.19 9.68l11.7-3.41M76.4 43.28H54.38M23.01 43.28H1M4.63 12h6.99v31.28H4.63zM65.33 11.61h6.99v31.66h-6.99zM41.7 13.83v15c-.97-.19-1.97-.29-3-.29-1.38 0-2.72.18-3.99.52V13.83h6.99zM26.53 18.12v16.19a15.69 15.69 0 00-3.52 8.97h-3.47V18.12h6.99zM57.93 17v26.28h-3.55c-.21-3.35-1.46-6.41-3.44-8.87V17h6.99z"/><circle class="prefix__st1" cx="8.12" cy="3.69" r="1.86"/><circle class="prefix__st1" cx="23.03" cy="9.57" r="1.86"/><circle class="prefix__st1" cx="38.76" cy="5.56" r="1.86"/><circle class="prefix__st1" cx="54.44" cy="9.57" r="1.86"/><circle class="prefix__st1" cx="68.82" cy="2.86" r="1.86"/><path class="prefix__st0" d="M41.7 28.83c3.71.71 6.96 2.74 9.24 5.58a15.665 15.665 0 013.47 9.85c0 8.68-7.03 15.71-15.71 15.71s-15.72-7.03-15.72-15.71a15.69 15.69 0 013.55-9.95c2.07-2.53 4.92-4.41 8.18-5.25"/><path fill="none" stroke="#00aeef" stroke-width="2" stroke-linecap="round" stroke-linejoin="round" stroke-miterlimit="10" d="M38.7 36.91v8.12h4.85"/><path class="prefix__st0" d="M38.7 30.47v2.69M25.19 44.26h2.7M49.56 44.26h2.69M48.32 34.53l-1.98 1.82M28.97 34.53l1.98 1.82M38.76 57.8v-2.69M48.38 53.74l-1.99-1.83M29.02 53.74L31 51.91"/></svg>