<svg version="1.1" id="prefix__Layer_1" xmlns="http://www.w3.org/2000/svg" x="0" y="0" viewBox="0 0 76.83 60.49" xml:space="preserve"><style>.prefix__st0,.prefix__st2{fill:none;stroke:#132e53;stroke-width:2;stroke-miterlimit:10}.prefix__st2{stroke-linecap:round;stroke-linejoin:round}</style><path class="prefix__st0" d="M45.23 33.29v-.01M34.21 50.82c-5.06 5.55-9.55 8.48-9.55 8.48S-.71 42.75 1.09 13.96C18.25 6.78 24.64 1.32 24.64 1.32s6.39 5.46 23.55 12.64c.26 4.17-.05 8.08-.77 11.73"/><path d="M31.18 47.87c-4.08 4.47-6.53 5.79-6.53 5.79S4.2 40.32 5.65 17.12C19.49 11.34 24.64 6.94 24.64 6.94s5.15 4.4 18.98 10.19c.21 3.36-.36 6.4-.94 9.34" fill="none" stroke="#a6ce39" stroke-width="2" stroke-miterlimit="10"/><path class="prefix__st2" d="M63.69 22.36l-4.22 4.73-3.86-1.58-10.45.22c-.47.01-.9.21-1.21.56l-3.62 4.09a2.784 2.784 0 00.71 4.27c1.16.67 2.65.34 3.54-.66l2.29-2.59 5.76-.36-1.25 1.45 13.1 11.57M65.21 45.05l.01-.01 10.61-11.96M32.02 20.07l4.39 3.88 2.63.87c.63.21 1.21.55 1.71.99l1.1.97M20.95 30.59l8.74 7.72.07 1.5c.09 1.81.9 3.51 2.26 4.71"/><path class="prefix__st2" d="M59.97 40.12l4.59 4.05c1 .88 1.09 2.41.21 3.4-.88 1-2.41 1.09-3.4.21l-4.59-4.05M56.78 43.74l4.59 4.05c1 .88 1.09 2.41.21 3.4-.88 1-2.41 1.09-3.4.21l-4.59-4.05"/><path class="prefix__st2" d="M53.59 47.35l4.59 4.05c1 .88 1.09 2.41.21 3.4-.88 1-2.41 1.09-3.4.21l-4.59-4.05M48.72 55.93l3.07 2.71c.5.44 1.13.64 1.74.6.76-.05 1.48-.44 1.93-1.17.62-1.01.34-2.33-.54-3.11l-4.52-3.99"/><g><path class="prefix__st2" d="M31.33 48.92a2.425 2.425 0 01-.21-3.43l1.64-1.85c.89-1.01 2.43-1.1 3.43-.21 1.01.89 1.1 2.43.21 3.43l-1.64 1.85c-.88 1-2.42 1.1-3.43.21zM38.63 55.36a2.425 2.425 0 01-.21-3.43l1.64-1.85c.89-1.01 2.43-1.1 3.43-.21 1.01.89 1.1 2.43.21 3.43l-1.64 1.85c-.89 1-2.43 1.09-3.43.21z"/><path class="prefix__st2" d="M42.27 58.57a2.425 2.425 0 01-.21-3.43l2.5-2.83c.89-1.01 2.43-1.1 3.43-.21 1.01.89 1.1 2.43.21 3.43l-2.5 2.83a2.425 2.425 0 01-3.43.21zM34.98 52.14a2.425 2.425 0 01-.21-3.43l3.36-3.81c.89-1.01 2.43-1.1 3.43-.21 1.01.89 1.1 2.43.21 3.43l-3.36 3.81c-.89 1-2.42 1.1-3.43.21z"/></g></svg>