<svg version="1.1" id="prefix__Layer_1" xmlns="http://www.w3.org/2000/svg" xmlns:xlink="http://www.w3.org/1999/xlink" x="0" y="0" viewBox="0 0 200 142.89" xml:space="preserve"><style></style><path fill="none" stroke="#fff" stroke-width="2" stroke-linecap="round" stroke-linejoin="round" stroke-miterlimit="10" d="M108.58 127.1h33.3v7.05h-33.3z"/><defs><path id="prefix__SVGID_1_" d="M-.06 0h200v142.89h-200z"/></defs><clipPath id="prefix__SVGID_00000014595952083002323390000013351647293826846875_"><use xlink:href="#prefix__SVGID_1_" overflow="visible"/></clipPath><path clip-path="url(#prefix__SVGID_00000014595952083002323390000013351647293826846875_)" fill="#fff" d="M108.52 127.1h33.3v7.05h-33.3zM91.12 134.16h68.11v7.26H91.12z"/><path clip-path="url(#prefix__SVGID_00000014595952083002323390000013351647293826846875_)" fill="none" stroke="#001b53" stroke-linecap="round" stroke-linejoin="round" stroke-miterlimit="10" d="M91.12 134.16h68.11v7.26H91.12z"/><path d="M65.9 28.54h124.42c4.5 0 8.15 3.65 8.15 8.15v82.27c0 4.5-3.65 8.15-8.15 8.15H68.17c-4.5 0-8.15-3.65-8.15-8.15V91.38h4.41V28.54h1.47z" clip-path="url(#prefix__SVGID_00000014595952083002323390000013351647293826846875_)" fill="#fff"/><path d="M65.9 28.54h124.42c4.5 0 8.15 3.65 8.15 8.15v82.27c0 4.5-3.65 8.15-8.15 8.15H68.17c-4.5 0-8.15-3.65-8.15-8.15V91.38h4.41V28.54h1.47z" clip-path="url(#prefix__SVGID_00000014595952083002323390000013351647293826846875_)" fill="none" stroke="#001b53" stroke-linecap="round" stroke-linejoin="round" stroke-miterlimit="10"/><path d="M65.9 28.54h124.42c4.5 0 8.15 3.65 8.15 8.15v82.27c0 4.5-3.65 8.15-8.15 8.15H68.17c-4.5 0-8.15-3.65-8.15-8.15V91.38h4.41V28.54h1.47z" clip-path="url(#prefix__SVGID_00000014595952083002323390000013351647293826846875_)" fill="none" stroke="#001b53" stroke-linecap="round" stroke-linejoin="round" stroke-miterlimit="10"/><path clip-path="url(#prefix__SVGID_00000014595952083002323390000013351647293826846875_)" fill="none" stroke="#001b53" stroke-width="2" stroke-linecap="round" stroke-linejoin="round" stroke-miterlimit="10" d="M75.12 114.69h92.57M175.33 114.7h8.83V42.37H65.9"/><path clip-path="url(#prefix__SVGID_00000014595952083002323390000013351647293826846875_)" fill="none" stroke="#001b53" stroke-linecap="round" stroke-linejoin="round" stroke-miterlimit="10" d="M108.52 127.1h33.3v7.05h-33.3zM91.12 134.16h68.11v7.26H91.12z"/><path clip-path="url(#prefix__SVGID_00000014595952083002323390000013351647293826846875_)" fill="#fff" d="M12.09 1.1L1.04 12.41v78.97h63.39V1.1z"/><path clip-path="url(#prefix__SVGID_00000014595952083002323390000013351647293826846875_)" fill="none" stroke="#001b53" stroke-linecap="round" stroke-linejoin="round" stroke-miterlimit="10" d="M12.09 1.1L1.04 12.41v78.97h63.39V1.1z"/><path clip-path="url(#prefix__SVGID_00000014595952083002323390000013351647293826846875_)" fill="none" stroke="#001b53" stroke-width="2" stroke-linecap="round" stroke-linejoin="round" stroke-miterlimit="10" d="M40.7 24.23L57.78 6.8M29.75 15.41l8.84 8.83M8.11 34.92l19.51-19.51M53.8 6.54h4.18v4.18"/><path clip-path="url(#prefix__SVGID_00000014595952083002323390000013351647293826846875_)" fill="none" stroke="#001b53" stroke-linecap="round" stroke-linejoin="round" stroke-miterlimit="10" d="M7.77 48.46v1.31h5.44v-5.81"/><path clip-path="url(#prefix__SVGID_00000014595952083002323390000013351647293826846875_)" fill="none" stroke="#001b53" stroke-linecap="round" stroke-linejoin="round" stroke-miterlimit="10" d="M12.06 49.77h11.19V38.41M28.69 33.7v16.07h5.44V38.41M39.57 41.96v7.81h5.44V38.41M50.45 33.7v16.07h5.44V27.78M23.25 49.77h5.44M34.13 49.77h5.44M45.01 49.77h5.44M18.57 49.77v-8.03"/><path d="M30.24 13.74a1.52 1.52 0 11-1.52-1.52c.84.01 1.52.69 1.52 1.52zM8.23 36.7a1.52 1.52 0 11-3.039.001A1.52 1.52 0 018.23 36.7zM41.08 25.97a1.52 1.52 0 11-1.52-1.52c.85 0 1.52.68 1.52 1.52z" clip-path="url(#prefix__SVGID_00000014595952083002323390000013351647293826846875_)" fill="none" stroke="#13a89e" stroke-linecap="round" stroke-linejoin="round" stroke-miterlimit="10"/><path clip-path="url(#prefix__SVGID_00000014595952083002323390000013351647293826846875_)" fill="none" stroke="#001b53" stroke-linecap="round" stroke-linejoin="round" stroke-miterlimit="10" d="M7.86 59.98h19.26M7.86 64.18h19.26M7.86 68.39h19.26M7.86 72.59h19.26M7.86 76.8h19.26M7.86 81h19.26M37.52 59.98h19.25M37.52 64.18h19.25M37.52 68.39h19.25M37.52 72.59h19.25M37.52 76.8h19.25M37.52 81h19.25M12.09 1.1L1.04 12.41v78.97h63.39V1.1z"/><path clip-path="url(#prefix__SVGID_00000014595952083002323390000013351647293826846875_)" fill="none" stroke="#001b53" stroke-linecap="round" stroke-linejoin="round" stroke-miterlimit="10" d="M1.04 12.4l11.05.01V1.1"/><path clip-path="url(#prefix__SVGID_00000014595952083002323390000013351647293826846875_)" fill="none" stroke="#001b53" stroke-width="2" stroke-linecap="round" stroke-linejoin="round" stroke-miterlimit="10" d="M184.16 50.99H65.9"/><path clip-path="url(#prefix__SVGID_00000014595952083002323390000013351647293826846875_)" fill="none" stroke="#001b53" stroke-linecap="round" stroke-linejoin="round" stroke-miterlimit="10" d="M177.97 46.48h-12.02"/><path clip-path="url(#prefix__SVGID_00000014595952083002323390000013351647293826846875_)" fill="none" stroke="#001b53" stroke-width="2" stroke-linecap="round" stroke-linejoin="round" stroke-miterlimit="10" d="M122.13 62.51h55.84v34.55h-55.84z"/><path clip-path="url(#prefix__SVGID_00000014595952083002323390000013351647293826846875_)" fill="none" stroke="#001b53" stroke-linecap="round" stroke-linejoin="round" stroke-miterlimit="10" d="M124.65 93.78l1.81-3.98 5.44 3 3.35-6.13 4.47-1 1.26-4.13 5.44 3 7.4-10.27 7.26 3.55 3.49-4.8 5.58-.87 4.05-5.39"/><path d="M83.33 62.56c4.3-4.3 11.28-4.3 15.58 0 4.3 4.3 4.3 11.28 0 15.58-4.3 4.3-11.28 4.3-15.58 0-4.31-4.3-4.31-11.28 0-15.58zM101.69 67.25l-10.57 3.1M86.81 60.21l4.31 10.14" clip-path="url(#prefix__SVGID_00000014595952083002323390000013351647293826846875_)" fill="none" stroke="#001b53" stroke-width="2" stroke-linecap="round" stroke-linejoin="round" stroke-miterlimit="10"/><path clip-path="url(#prefix__SVGID_00000014595952083002323390000013351647293826846875_)" fill="none" stroke="#001b53" stroke-linecap="round" stroke-linejoin="round" stroke-miterlimit="10" d="M122.13 102.78h15.28M122.13 105.88h15.28M122.13 109.27h15.28M73.69 87.29h37.68M73.69 90.39h37.68M73.69 93.78h37.68M73.7 97.06h37.67M73.7 100.16h37.67M73.7 103.55h37.67M142.41 102.78h15.28M142.41 105.88h15.28M142.41 109.27h15.28M162.7 102.78h15.27M162.7 105.88h15.27M162.7 109.27h15.27"/><path d="M175.35 115.55c0 2.12-1.72 3.84-3.84 3.84s-3.83-1.72-3.83-3.84 1.72-3.84 3.83-3.84c2.12 0 3.84 1.72 3.84 3.84z" clip-path="url(#prefix__SVGID_00000014595952083002323390000013351647293826846875_)" fill="none" stroke="#00aeef" stroke-width="2" stroke-linecap="round" stroke-linejoin="round" stroke-miterlimit="10"/></svg>