<svg version="1.1" id="prefix__Layer_1" xmlns="http://www.w3.org/2000/svg" x="0" y="0" viewBox="0 0 142.98 142.89" xml:space="preserve"><style>.prefix__st1{fill:#001b54}.prefix__st2{fill:#fff}.prefix__st3{fill:#a6ce39}</style><path fill="none" d="M0 0h142.98v142.89H0z"/><path class="prefix__st1" d="M106.16 15.91l-1.54 2.73c-.39-.22-.78-.43-1.17-.64-9.25-4.97-19.67-7.58-30.24-7.58-8.99 0-17.64 1.81-25.75 5.39-.74.32-1.48.66-2.21 1.02-.12.06-.25.12-.37.18l-.69-1.4c.11-.18.19-.37.22-.58.03-.12.04-.25.04-.38 0-.3-.07-.58-.2-.83a37 37 0 011.43-.66c.17-.08.35-.15.52-.23.31-.13.61-.27.92-.39.67-.28 1.34-.56 2.01-.81.48-.18.96-.36 1.44-.53 7.22-2.59 14.81-3.9 22.64-3.9 11 0 21.86 2.7 31.51 7.84.48.24.97.5 1.44.77zM10.33 62.08l-3.08-.61a67.36 67.36 0 012.62-9.54l-.25-.25.68-.91c5.55-14.69 16.14-27.04 29.84-34.8l1.55 2.73c-12.98 7.35-23.03 19.01-28.34 32.89l-.18.49a61.96 61.96 0 00-2.84 10zM38.77 128.56l-.41.64c-.14-.04-.29-.05-.44-.05-.63 0-1.2.32-1.53.8-.13.19-.23.4-.28.63-.27-.18-.53-.35-.79-.53-.19-.12-.37-.25-.55-.38-.44-.3-.87-.61-1.3-.93a67.42 67.42 0 01-22.93-29.86c-.2-.5-.39-1-.56-1.5-.19-.51-.37-1.03-.54-1.55.05 0 .1.01.15.01.97 0 1.77-.74 1.86-1.69l.68-.22c.17.53.34 1.06.52 1.58.21.6.43 1.2.66 1.8 4.45 11.68 12.27 21.85 22.45 29.19.53.38 1.06.75 1.6 1.12.46.32.93.64 1.41.94zM8.07 91.18l-.14-.57c-.57-2.34-1.03-4.74-1.35-7.14l3.11-.41c.3 2.28.73 4.58 1.28 6.81l.13.5-3.03.81zM129.45 111.35c-.21.32-.42.64-.64.96-.34.5-.69.99-1.04 1.48-12.64 17.56-32.82 27.95-54.56 27.95-10.92 0-21.7-2.66-31.29-7.72-.47-.25-.93-.5-1.4-.76-.07-.03-.13-.07-.19-.11l.86-1.53.15-.28.52-.93c.35.2.71.39 1.06.59.44.24.88.47 1.33.69 8.92 4.53 18.87 6.9 28.95 6.9 19.89 0 38.41-9.12 50.52-24.65l.17-.22c.38-.49.74-.98 1.11-1.48.29-.39.57-.79.85-1.19.03-.04.06-.09.09-.13.28-.39.54-.79.81-1.19.02-.04.05-.07.07-.11l.03.02.22.14c.2.35.51.63.89.79.17.07.35.12.54.14h.01l.94.64zM140.43 74.51c0 2.47-.13 4.93-.4 7.34l-.12 1.04a66.47 66.47 0 01-5.34 19.12c-.44.97-.9 1.94-1.39 2.89-.16.32-.33.65-.5.96-.1.18-.19.36-.29.54-.19.35-.38.7-.58 1.04-.12.22-.24.43-.37.64l-2.72-1.57c.2-.34.39-.68.58-1.03.26-.47.52-.95.77-1.43 3.67-7.04 5.96-14.61 6.83-22.55.25-2.29.38-4.65.38-7 0-4.63-.49-9.22-1.47-13.69-.12-.53-.24-1.06-.37-1.59-.09-.38-.19-.76-.29-1.14l-.12-.46.19-.05a1.897 1.897 0 001.38-.04c.27-.12.51-.3.69-.52l.77-.21c.12.44.24.88.35 1.33.15.57.28 1.15.41 1.73a67.11 67.11 0 011.61 14.65zM133.96 54.08c-2.78-8.27-7.16-15.78-13.01-22.32l-.27-.3 1.27-.95 1.14-1.06.18.19c6.16 6.88 10.75 14.75 13.67 23.43l-2.98 1.01z"/><ellipse class="prefix__st1" cx="42.86" cy="41.68" rx="5.64" ry="4.29"/><path class="prefix__st1" d="M53.55 35.22c-.07-.62-.2-1.23-.37-1.81-1.34-4.58-5.58-7.93-10.59-7.93-6.08 0-11.03 4.95-11.03 11.03 0 6.08 4.95 11.03 11.03 11.03 5.55 0 10.16-4.12 10.92-9.47.08-.51.11-1.03.11-1.57v-.01c0-.42-.02-.85-.07-1.27zm-5.05 6.51a7.864 7.864 0 01-5.91 2.67c-2.04 0-3.9-.78-5.31-2.05a7.869 7.869 0 01-2.59-5.84c0-4.35 3.54-7.89 7.9-7.89 4.35 0 7.89 3.54 7.89 7.89 0 2-.75 3.83-1.98 5.22z"/><circle class="prefix__st1" cx="42.86" cy="34.46" r="2.54"/><ellipse class="prefix__st1" cx="117.88" cy="29.66" rx="7.85" ry="5.97"/><path class="prefix__st1" d="M117.5 7.72c-5.46 0-10.23 2.98-12.78 7.4-.52.9-.95 1.87-1.27 2.88-.45 1.4-.69 2.9-.69 4.46 0 8.12 6.61 14.74 14.74 14.74 2.39 0 4.64-.57 6.64-1.58.94-.48 1.83-1.06 2.64-1.72a14.79 14.79 0 004.99-7.74c.18-.69.31-1.41.39-2.14.05-.51.08-1.03.08-1.55 0-8.13-6.62-14.75-14.74-14.75zm8.09 23.04a11.364 11.364 0 01-3.48 2.34c-.49.22-1 .4-1.53.54a11.488 11.488 0 01-3.09.42c-2.63 0-5.06-.88-7-2.36a11.574 11.574 0 01-4.59-9.23c0-6.4 5.2-11.6 11.6-11.6 6.39 0 11.6 5.2 11.6 11.6 0 3.24-1.35 6.18-3.51 8.29z"/><circle class="prefix__st1" cx="117.88" cy="19.62" r="3.53"/><ellipse class="prefix__st1" cx="100.46" cy="67.26" rx="5.87" ry="4.47"/><path class="prefix__st1" d="M110.71 57.46c-.21-.5-.45-.98-.73-1.44-2-3.33-5.64-5.56-9.8-5.56-3.15 0-5.99 1.28-8.06 3.34A11.421 11.421 0 0089 59.53c-.08.39-.14.78-.19 1.18-.04.38-.06.77-.06 1.17 0 6.3 5.12 11.42 11.42 11.42s11.42-5.12 11.42-11.42c.01-1.57-.31-3.07-.88-4.42zm-4.39 9.95a8.27 8.27 0 01-6.15 2.74c-2.11 0-4.04-.79-5.5-2.1a8.284 8.284 0 01-2.78-6.18c0-4.56 3.71-8.28 8.28-8.28 4.56 0 8.28 3.72 8.28 8.28.01 2.13-.8 4.08-2.13 5.54z"/><circle class="prefix__st1" cx="100.46" cy="59.74" r="2.64"/><g><ellipse class="prefix__st1" cx="78.86" cy="127.44" rx="7.41" ry="5.63"/><path class="prefix__st1" d="M92.09 117.26c-.14-.56-.32-1.11-.52-1.64-2.03-5.24-7.12-8.96-13.06-8.96-1.39 0-2.74.21-4.01.59-.51.15-1.01.34-1.5.55-4.99 2.14-8.49 7.1-8.49 12.87 0 7.72 6.28 14 14 14 6.79 0 12.46-4.85 13.73-11.27a14.487 14.487 0 00.27-2.72c-.01-1.2-.15-2.34-.42-3.42zm-5.91 11.06a10.808 10.808 0 01-7.67 3.18c-2.52 0-4.84-.86-6.69-2.31a10.836 10.836 0 01-4.17-8.55c0-5.99 4.87-10.86 10.86-10.86 5.99 0 10.86 4.87 10.86 10.86 0 3-1.22 5.72-3.19 7.68z"/><circle class="prefix__st1" cx="78.86" cy="117.96" r="3.33"/></g><g><ellipse class="prefix__st1" cx="15.8" cy="79.74" rx="7.64" ry="5.81"/><path class="prefix__st1" d="M29.82 72.55c-.06-5.23-2.94-9.8-7.18-12.26-.47-.27-.95-.52-1.45-.73-1.77-.77-3.71-1.2-5.76-1.2-.9 0-1.78.08-2.63.24-.52.1-1.04.22-1.54.38-.09.02-.17.05-.26.08-1.3.42-2.51 1.02-3.62 1.77-3.82 2.59-6.33 6.96-6.33 11.91 0 4.63 2.2 8.76 5.61 11.4 1.06.82 2.24 1.49 3.5 1.99 1.63.64 3.41 1 5.27 1 7.46 0 13.61-5.7 14.32-12.98.05-.46.07-.93.07-1.41v-.19zm-6.49 8.19c-2.03 2-4.82 3.24-7.89 3.24-2.58 0-4.96-.87-6.85-2.34-2.67-2.06-4.39-5.28-4.39-8.91 0-6.2 5.04-11.25 11.25-11.25 6.2 0 11.25 5.04 11.25 11.25-.01 3.13-1.3 5.97-3.37 8.01z"/><circle class="prefix__st1" cx="15.8" cy="69.96" r="3.44"/></g><path class="prefix__st1" d="M10.84 91.2l-3.07-.67c.09-.43.15-.66.15-.66l3.05.74-.13.59z"/><g><path class="prefix__st1" d="M46.2 12.93l-.43-.67c-.15.1-.31.2-.46.3-.44.28-.87.57-1.32.87.11.12.19.25.26.39.13.25.2.53.2.83 0 .13-.01.26-.04.38.52-.35 1.04-.7 1.55-1.03l.66-.42-.42-.65zm61.29-.3l-1.09 1.13c.22.21.42.41.62.6l1.11-1.11c-.2-.2-.42-.41-.64-.62zm-56.28-3.6c-.91.5-1.82 1.02-2.75 1.57l.67 1.13.13.22c.44-.26.87-.51 1.3-.76.47-.27.93-.53 1.4-.78l-.75-1.38zm51.31-.44l-.89 1.29c.84.58 1.67 1.2 2.46 1.85l.99-1.22c-.82-.67-1.68-1.32-2.56-1.92zM56.9 6.21c-.95.42-1.9.87-2.87 1.35l.7 1.4c.95-.47 1.89-.91 2.81-1.32l-.64-1.43zm40.11-.86l-.69 1.41c.92.45 1.83.94 2.71 1.46l.8-1.35c-.92-.54-1.87-1.05-2.82-1.52zm-34.2-1.44c-.98.33-1.98.69-2.99 1.08l.57 1.46c.99-.38 1.96-.73 2.92-1.05l-.5-1.49zM91.06 3l-.46 1.5c.98.3 1.95.64 2.9 1.02l.58-1.46c-.98-.39-2-.75-3.02-1.06zm-22.11-.76c-1.01.22-2.04.46-3.09.75l.41 1.51c1.02-.28 2.02-.52 3.01-.73l-.33-1.53zm15.87-.64l-.22 1.56c1.01.14 2.03.33 3.03.55l.34-1.53c-1.03-.23-2.1-.42-3.15-.58zm-9.56-.28c-1.04.08-2.11.2-3.17.36l.23 1.55c1.03-.15 2.06-.27 3.06-.35l-.12-1.56zm3.54-.14h-.35l.01 1.57h.34c.93 0 1.85.03 2.74.09l.1-1.57c-.92-.06-1.87-.09-2.84-.09zM92.35 114.9c-.26.24-.52.47-.78.71L90.03 117l1.05 1.17c.34-.31.68-.61 1.01-.91.45-.4.88-.8 1.32-1.2l-1.06-1.16zm4.58-4.27c-.75.71-1.5 1.43-2.28 2.15l1.07 1.15c.78-.72 1.54-1.44 2.29-2.16l-1.08-1.14zm4.48-4.36c-.73.72-1.47 1.46-2.23 2.2l1.1 1.12c.76-.74 1.51-1.48 2.24-2.21l-1.11-1.11zm4.38-4.48c-.71.74-1.43 1.5-2.17 2.25l1.12 1.1c.74-.76 1.47-1.52 2.19-2.27l-1.14-1.08zm4.26-4.58c-.69.76-1.39 1.53-2.11 2.31l1.15 1.07c.72-.78 1.43-1.56 2.12-2.32l-1.16-1.06zm4.1-4.71c-.66.78-1.34 1.57-2.04 2.37l1.19 1.03c.7-.8 1.38-1.6 2.05-2.39l-1.2-1.01zm3.95-4.85c-.63.8-1.28 1.62-1.95 2.44l1.22.99c.67-.83 1.33-1.65 1.97-2.46l-1.24-.97zm3.74-4.99c-.59.83-1.21 1.67-1.84 2.52l1.25.94c.64-.86 1.26-1.7 1.87-2.54l-1.28-.92zm3.5-5.17c-.55.86-1.13 1.73-1.72 2.6l1.3.88c.6-.89 1.18-1.77 1.74-2.64l-1.32-.84zm3.22-5.33c-.5.89-1.02 1.78-1.57 2.69l1.34.81c.56-.93 1.09-1.84 1.59-2.73l-1.36-.77zm2.85-5.53c-.43.92-.89 1.84-1.38 2.79l1.4.72c.5-.96.96-1.91 1.4-2.84l-1.42-.67zm2.41-5.71c-.35.94-.73 1.9-1.14 2.88l1.44.61c.42-1 .81-1.98 1.17-2.95l-1.47-.54zm2.04-3.24a1.755 1.755 0 01-.87-.22c-.05.17-.1.35-.16.52l.33.1 1.16.37c.1-.31.19-.62.29-.93-.23.11-.48.16-.75.16zM136.91 52.99l-.73-.15-.12.54-.03.13 1.53.34.15-.69-.8-.17zm.12-6.26c-.07 1.01-.17 2.04-.32 3.06l1.56.22c.15-1.06.26-2.13.33-3.18l-1.57-.1zm1.48-6.3l-1.56.15c.1 1 .15 2.04.17 3.06l1.57-.02a42.32 42.32 0 00-.18-3.19zm-1.22-6.3l-1.51.45c.29.97.53 1.97.72 2.98l1.54-.3c-.2-1.06-.45-2.11-.75-3.13zm-2.44-5.94l-1.38.74c.48.89.92 1.82 1.3 2.77l1.45-.59c-.41-1-.87-1.98-1.37-2.92zm-2.7-4.17c-.3-.39-.61-.78-.93-1.15l-1.2 1.02c.61.72 1.2 1.48 1.73 2.27.04.05.08.11.11.16l1.3-.88c-.31-.49-.65-.96-1.01-1.42zM12.81 58.59c-.04-.47-.08-.95-.11-1.44l-1.21.08-.35.02c.02.34.05.67.08 1l.06.7c.05.5.09.98.14 1.45l1.56-.16c-.07-.52-.13-1.08-.17-1.65zm-.29-4.73c-.02-.76-.04-1.54-.05-2.34v-.59H10.9v.61c.01.87.03 1.73.06 2.56l1.5-.05h.07c0-.07 0-.12-.01-.19zm-1.37-9.27c-.09 1.07-.15 2.13-.19 3.17l.55.02 1.02.04c.03-.85.08-1.71.15-2.58.01-.18.02-.35.04-.52l-1.57-.13zm.85-6.31c-.2 1.04-.37 2.09-.51 3.15l1.56.21c.14-1.02.3-2.04.49-3.05L12 38.28zm1.63-6.17c-.34.98-.66 2.01-.93 3.06l1.52.4c.27-1.01.57-2 .9-2.95l-1.49-.51zm2.7-5.84c-.54.89-1.04 1.86-1.5 2.85l1.43.66c.43-.95.91-1.85 1.42-2.7l-1.35-.81zm4.04-5.05c-.78.73-1.52 1.53-2.2 2.39l1.23.98c.63-.8 1.32-1.54 2.04-2.22l-1.07-1.15zm5.38-3.64c-.99.46-1.94 1-2.83 1.6l.88 1.3c.83-.56 1.7-1.06 2.61-1.48l-.66-1.42zm6.18-1.88c-1.09.18-2.15.42-3.15.72l.45 1.5c.94-.28 1.93-.51 2.95-.68l-.25-1.54zm5.71-.37c-.86-.02-1.7-.01-2.51.03l.08 1.57c.94-.05 1.91-.05 2.92-.02h.14l.06-1.57c-.23.01-.46 0-.69-.01zM83 107.71l-1.52.39.24.95 1.53-.37-.25-.97zm-1.86-6.07l-1.48.53c.34.95.67 1.93.98 2.94l1.5-.46c-.31-1.04-.65-2.04-1-3.01zm-2.48-5.86l-1.41.69c.45.9.88 1.84 1.29 2.81l1.45-.61c-.43-.99-.87-1.96-1.33-2.89zm-1.64-3.04c-.27-.46-.55-.92-.83-1.37-.24-.38-.48-.75-.72-1.11l-1.3.88c.24.35.47.71.71 1.08.28.45.56.9.83 1.36.04.06.07.12.1.17l1.36-.79a1.07 1.07 0 01-.15-.22zM71.05 84.75c-.4-.42-.82-.84-1.23-1.24l-1.09 1.13c.39.37.77.76 1.14 1.15.33.35.66.71.98 1.07l1.18-1.04c-.32-.36-.65-.72-.98-1.07zm-6.2-5.28l-.89 1.3c.84.58 1.67 1.2 2.46 1.84l.99-1.22c-.82-.67-1.68-1.32-2.56-1.92zm-5.55-3.18l-.67 1.42c.93.44 1.85.91 2.73 1.42l.78-1.36c-.92-.53-1.87-1.02-2.84-1.48zm-5.97-2.27l-.45 1.5c.99.3 1.97.63 2.92.99l.56-1.47c-.99-.37-2.01-.71-3.03-1.02zm-6.23-1.4l-.25 1.55c1 .16 2.01.35 3.03.58l.35-1.53c-1.05-.24-2.09-.44-3.13-.6zm-15.86-.26c-.49.06-.97.12-1.42.18-.62.09-1.2.18-1.73.27l.27 1.55c.43-.07.9-.15 1.4-.22.52-.08 1.08-.15 1.67-.22l-.19-1.56zm9.53-.37l-.06 1.57c1 .04 2.04.11 3.09.21l.15-1.56c-1.09-.1-2.15-.17-3.18-.22zm-3.18-.04c-1.11.01-2.17.06-3.18.12l.1 1.57c.98-.06 2.01-.11 3.09-.12l-.01-1.57zM21.54 58.22c-.12.43-.24.88-.34 1.33-.14.6-.26 1.21-.36 1.82l1.55.25c.07-.45.16-.9.26-1.34.12-.55.25-1.09.4-1.63l-1.51-.43zm2.51-5.94c-.54.93-1.02 1.9-1.44 2.89l1.45.61c.39-.94.85-1.85 1.35-2.72l-1.36-.78zm3.87-5.16c-.75.79-1.45 1.61-2.09 2.46l1.26.94c.6-.8 1.26-1.58 1.97-2.32l-1.14-1.08zm4.96-4.13c-.89.58-1.77 1.23-2.6 1.92l1 1.2c.79-.66 1.61-1.26 2.45-1.81l-.85-1.31zM92.11 53.79c-.11-.12-.22-.23-.33-.34l-1.13 1.09.42.45c.41.44.83.89 1.24 1.36l1.17-1.04c-.45-.53-.91-1.03-1.37-1.52zm-4.95-4.7l-1.02 1.2c.77.66 1.54 1.34 2.31 2.07l1.08-1.14c-.79-.76-1.57-1.46-2.37-2.13zm-5.07-3.84l-.88 1.3c.84.56 1.68 1.16 2.52 1.8l.95-1.25a56.96 56.96 0 00-2.59-1.85zm-5.48-3.23l-.72 1.4c.89.46 1.8.95 2.71 1.49l.8-1.35c-.94-.56-1.87-1.07-2.79-1.54zm-5.84-2.55l-.54 1.47c.94.34 1.9.72 2.87 1.15l.63-1.44c-1.01-.44-2-.83-2.96-1.18zm-6.11-1.81l-.35 1.53c.96.22 1.96.48 2.99.78l.45-1.5c-1.07-.32-2.1-.58-3.09-.81zm-6.31-1.01l-.14 1.57c1 .09 2.04.22 3.06.38l.25-1.55c-1.06-.17-2.13-.3-3.17-.4zm-3.69-.17c-.38 0-.73.01-1.04.02-1.07.03-1.68.11-1.71.11l.2 1.56c.01 0 .51-.06 1.4-.09.33-.01.72-.02 1.15-.02h.47l.02-1.57-.49-.01zM110.65 55.38c-.24.23-.47.45-.68.64-.96.86-1.6 1.28-1.61 1.29l.85 1.32c.03-.02.61-.39 1.49-1.16.31-.27.66-.59 1.04-.96l-1.09-1.13zm3.81-4.75c-.55.87-1.14 1.7-1.77 2.49l1.22.98c.66-.83 1.3-1.71 1.87-2.63l-1.32-.84zm2.67-5.48c-.35.96-.75 1.91-1.19 2.81l1.41.69c.46-.95.89-1.95 1.25-2.96l-1.47-.54zm1.5-5.93c-.15 1.02-.36 2.03-.6 3l1.52.38c.26-1.02.47-2.08.63-3.15l-1.55-.23zm1.95-5.58c0-.19 0-.38-.01-.57l-1.57.03.01.81v.05c0 .55-.01 1.08-.03 1.61l-.03.61 1.57.1c.02-.33.04-.66.05-1 .02-.45.02-.9.02-1.36 0-.1 0-.19-.01-.28zM53.75 32.88c-.19.17-.38.35-.57.53-.57.54-1.15 1.09-1.72 1.67l1.11 1.11c.33-.33.65-.65.98-.96.42-.41.84-.8 1.26-1.18l-1.06-1.17zm4.87-4.08c-.83.63-1.65 1.29-2.48 1.98l1.01 1.2c.81-.68 1.62-1.32 2.43-1.93l-.96-1.25zm5.26-3.56c-.89.53-1.78 1.1-2.68 1.71l.89 1.3c.87-.59 1.74-1.15 2.61-1.67l-.82-1.34zm5.63-2.97c-.95.43-1.9.89-2.86 1.4l.73 1.39c.93-.49 1.86-.94 2.78-1.36l-.65-1.43zm5.96-2.26c-.99.31-2 .65-3.01 1.03l.56 1.47c.98-.37 1.96-.71 2.92-1l-.47-1.5zm28.29-.02l-.46 1.5c.3.09.59.18.86.28l.5-1.49c-.28-.1-.58-.2-.9-.29zm-22.09-1.45c-1.04.17-2.09.39-3.13.63l.36 1.53c1-.24 2.02-.44 3.02-.61l-.25-1.55zm15.88-.02l-.25 1.55c1.02.17 2.03.37 3.02.6l.36-1.53c-1.02-.23-2.08-.44-3.13-.62zm-9.53-.62c-1.06.04-2.13.11-3.18.21l.16 1.56c1.02-.1 2.05-.17 3.08-.21l-.06-1.56zm3.19 0l-.05 1.57c1.07.04 2.1.11 3.08.2l.15-1.56c-1.02-.1-2.08-.18-3.18-.21zM74.49 107.24l-.21-1.39-1.55.22c.08.57.16 1.14.26 1.72.07.47.15.94.24 1.42l1.54-.28c-.09-.58-.19-1.14-.28-1.69zm-.77-7.56l-1.57.06c.04 1.04.12 2.09.21 3.17l1.57-.15c-.09-1.04-.16-2.07-.21-3.08zm-1.5-6.3c-.01.12-.02.24-.02.37-.05.92-.09 1.85-.1 2.81l1.57.02a54.584 54.584 0 01.12-3.09l-1.57-.11zM73.61 84.26c-.11.43-.21.87-.3 1.31-.12.56-.23 1.13-.34 1.7.23-.1.48-.16.75-.16.3 0 .59.07.83.2.1-.53.21-1.05.32-1.57.08-.38.17-.75.25-1.11l-1.51-.37zm1.92-6.08c-.38.98-.74 1.99-1.06 3.01l1.5.47c.32-1.01.66-1.98 1.02-2.91l-1.46-.57zm2.71-5.77c-.52.93-1.01 1.89-1.46 2.84l1.42.67c.43-.93.91-1.85 1.41-2.75l-1.37-.76zm3.49-5.35c-.64.84-1.26 1.72-1.84 2.61l1.32.86c.56-.86 1.16-1.71 1.77-2.52l-1.25-.95zm4.2-4.81c-.75.74-1.49 1.52-2.19 2.33l1.18 1.03c.68-.78 1.39-1.53 2.11-2.24l-1.1-1.12zm5.25-3.35l-.4-.66c-.01.01-.69.42-1.78 1.29-.22.17-.45.36-.69.57l.51.61.5.59c1.39-1.16 2.27-1.72 2.28-1.72l.15-.12-.57-.56zM93.84 121.69c-.45.04-.92.07-1.38.1-.57.03-1.14.07-1.73.09l.07 1.57c.48-.02.96-.05 1.43-.08.58-.03 1.16-.07 1.73-.12l-.12-1.56zm6.17-.71c-1 .15-2.03.29-3.08.42l.18 1.56c1.07-.12 2.12-.26 3.14-.42l-.24-1.56zm6.09-1.21c-.98.24-1.99.46-3.03.67l.3 1.54c1.06-.21 2.1-.44 3.1-.69l-.37-1.52zm5.94-1.78c-.95.34-1.93.66-2.94.96l.45 1.5c1.04-.31 2.05-.64 3.02-.99l-.53-1.47zm5.69-2.41c-.9.45-1.84.88-2.81 1.29l.61 1.44c1-.42 1.97-.86 2.9-1.33l-.7-1.4zm6.17-1.86l-.83-1.23c-.84.56-1.72 1.11-2.62 1.63l.79 1.36c.85-.49 1.69-1.01 2.49-1.54.07-.05.15-.1.22-.15l-.05-.07zm4.06-3.14a1.9 1.9 0 01-.89-.79c-.04-.08-.08-.15-.11-.23-.04.03-.07.06-.11.09-.03.03-.07.06-.1.09-.34.28-.68.56-1.04.84l-.15.12.29.37.68.87c.08-.07.17-.13.25-.2.43-.34.85-.69 1.26-1.04l-.08-.12zM133.19 104.89l-.94-.76c-.19.24-.39.47-.58.71-.34.4-.69.79-1.04 1.18-.13.15-.27.29-.4.43l1.14 1.07c.11-.12.22-.23.32-.35.24-.26.48-.52.71-.79l.37-.43c.24-.28.48-.56.7-.84l-.28-.22zm2.6-5.79l-.07-.04c-.51.89-1.06 1.76-1.63 2.61l.49.33.81.56c.6-.88 1.17-1.79 1.7-2.71l-1.3-.75zm2.53-5.6c-.35.95-.75 1.9-1.18 2.83l1.42.67c.45-.98.87-1.97 1.23-2.96l-1.47-.54zm2.72-5.9l-1.57.12a11.933 11.933 0 010 1.72c0 .02-.07.43-.25 1.14l1.52.38c.21-.82.28-1.28.28-1.34.03-.35.05-.7.05-1.05.01-.32 0-.65-.03-.97zm-1.13-4.71c-.39-.98-.74-1.57-.76-1.6l-1.35.8c.01.01.64 1.09 1.13 2.72l.76-.23.75-.22c-.18-.55-.36-1.05-.53-1.47zM44.27 130.12c-.47.03-.94.06-1.41.07-.54.02-1.07.03-1.6.03h-.08v1.57h.08c.53 0 1.06-.01 1.6-.03.46-.02.92-.04 1.38-.07.04 0 .08 0 .12-.01l-.09-1.56zm6.14-.76c-1.05.19-2.07.34-3.06.47l.19 1.56c1.02-.13 2.07-.29 3.15-.48l-.28-1.55zm6.05-1.38c-1.03.28-2.03.53-3.01.75l.35 1.53c1-.23 2.03-.49 3.08-.77l-.42-1.51zm5.94-1.85c-1 .35-1.99.68-2.95.98l.47 1.5c.98-.31 1.99-.64 3.01-.99l-.53-1.49zm4.27-1.6c-.45.18-.9.36-1.35.53l.56 1.46c.45-.17.9-.35 1.36-.53l-.57-1.46zM36.11 130.58c.05-.23.15-.44.28-.63-.35-.04-.7-.09-1.04-.14l-.03.23-.2 1.32c.33.05.66.09 1 .14-.04-.15-.07-.32-.07-.49.01-.15.03-.29.06-.43zm-6.69-2.22l-.52 1.48c1 .35 2.03.66 3.08.91l.37-1.53c-1-.24-1.99-.53-2.93-.86zm-5.51-2.6l-.82 1.34c.91.56 1.87 1.07 2.83 1.53l.67-1.42c-.91-.44-1.82-.93-2.68-1.45zm-4.82-3.73L18 123.16c.78.75 1.6 1.46 2.44 2.1l.96-1.24c-.8-.61-1.57-1.28-2.31-1.99zm-3.95-4.66l-1.29.89c.62.89 1.27 1.75 1.96 2.55l1.2-1.01a29.56 29.56 0 01-1.87-2.43zm-3.03-5.34l-1.43.66c.45.98.94 1.94 1.46 2.85l1.36-.77c-.49-.88-.96-1.8-1.39-2.74zm-2.09-5.79l-1.52.41c.27 1.01.6 2.04.97 3.07l1.48-.53a35.7 35.7 0 01-.93-2.95zm-.87-6.03l-1.57.03c.03 1.13.11 2.21.26 3.22l1.55-.22c-.13-.94-.21-1.96-.24-3.03zm-1.28-5.49c-.08.71-.15 1.41-.2 2.1-.01.07-.01.14-.02.22l.45.03 1.12.07c.03-.43.07-.88.11-1.33-.65-.08-1.2-.5-1.46-1.09z"/></g><g><path class="prefix__st2" d="M41.27 130.23a3.423 3.423 0 00-3.92-2.6c-1.17.2-2.13.98-2.58 2.04a3.43 3.43 0 003.15 4.78c1.04 0 1.97-.46 2.6-1.18.36-.41.62-.91.75-1.47.04-.15.06-.29.07-.44.01-.11.02-.22.02-.34 0-.28-.03-.54-.09-.79zm-3.35 2.65c-.86 0-1.58-.58-1.8-1.38-.04-.15-.07-.32-.07-.49 0-.15.02-.29.05-.43a1.854 1.854 0 011.81-1.43 1.857 1.857 0 011.87 1.86c.01 1.03-.83 1.87-1.86 1.87z"/><path class="prefix__st3" d="M42.86 130.19a5.02 5.02 0 00-4.94-4.19 4.985 4.985 0 00-4.45 2.73c-.35.68-.55 1.45-.55 2.27 0 2.76 2.24 5 5 5 1.63 0 3.08-.78 3.99-2 .49-.65.83-1.42.95-2.25.04-.25.06-.5.06-.76v-.01c.01-.25-.02-.52-.06-.79zm-4.94 2.69c-.86 0-1.58-.58-1.8-1.38-.04-.15-.07-.32-.07-.49 0-.15.02-.29.05-.43a1.854 1.854 0 011.81-1.43 1.857 1.857 0 011.87 1.86c.01 1.03-.83 1.87-1.86 1.87z"/><path class="prefix__st2" d="M74.88 85.75c-.36-.13-.75-.2-1.16-.2-.14 0-.28.01-.42.03a3.43 3.43 0 00-3.02 3.41c0 1.9 1.54 3.43 3.43 3.43.4 0 .79-.07 1.14-.2.5-.18.96-.47 1.32-.85.6-.62.97-1.46.97-2.39.01-1.49-.94-2.76-2.26-3.23zm-3.02 3.23a1.866 1.866 0 011.86-1.86c.3 0 .59.07.83.2.61.31 1.03.94 1.03 1.67 0 1.03-.84 1.87-1.87 1.87a1.878 1.878 0 01-1.85-1.88z"/><path class="prefix__st3" d="M73.72 83.98a5.031 5.031 0 00-3.86 1.82c-.72.87-1.15 1.98-1.15 3.19 0 2.23 1.47 4.13 3.49 4.77.48.15.99.24 1.52.24h.04c.68-.01 1.33-.15 1.93-.41a5.004 5.004 0 003.03-4.6c0-2.77-2.24-5.01-5-5.01zm.83 3.33c.61.31 1.03.94 1.03 1.67 0 1.03-.84 1.87-1.87 1.87-1.03 0-1.87-.84-1.87-1.87a1.866 1.866 0 011.86-1.86c.32 0 .61.07.85.19z"/><path class="prefix__st2" d="M131.82 107.45a3.463 3.463 0 00-1.19-1.42 3.53 3.53 0 00-1.31-.54c-.2-.04-.41-.06-.62-.06a3.43 3.43 0 00-3.43 3.43 3.371 3.371 0 00.68 2.05c.23.31.52.59.84.8.55.37 1.2.58 1.91.58h.11a3.434 3.434 0 003.32-3.43c0-.5-.11-.98-.31-1.41zm-3.12 3.28c-.06 0-.13 0-.19-.01h-.01c-.19-.02-.37-.07-.54-.14a1.9 1.9 0 01-.89-.79c-.04-.08-.08-.15-.11-.23a1.865 1.865 0 011.74-2.55c1.03 0 1.87.83 1.87 1.86a1.878 1.878 0 01-1.87 1.86z"/><path class="prefix__st3" d="M132.77 105.97c-.02-.04-.05-.07-.08-.11-.29-.39-.63-.72-1.02-1.01-.47-.35-1.01-.62-1.58-.78-.44-.13-.9-.2-1.39-.2-2.76 0-5 2.24-5 5 0 1.3.5 2.49 1.32 3.38a5.01 5.01 0 003.69 1.63c2.76 0 5-2.24 5-5-.01-1.09-.36-2.1-.94-2.91zm-4.07 4.76c-.06 0-.13 0-.19-.01h-.01c-.19-.02-.37-.07-.54-.14a1.9 1.9 0 01-.89-.79c-.04-.08-.08-.15-.11-.23a1.865 1.865 0 011.74-2.55c1.03 0 1.87.83 1.87 1.86a1.878 1.878 0 01-1.87 1.86z"/><g><path class="prefix__st2" d="M45.96 14.01c-.05-.3-.15-.58-.28-.84a3.44 3.44 0 00-3.09-1.94c-1.9 0-3.44 1.54-3.44 3.43a3.452 3.452 0 002.02 3.13 3.43 3.43 0 004.08-.95c.49-.59.78-1.35.78-2.17-.01-.24-.03-.45-.07-.66zm-3.37 2.51c-1.03 0-1.87-.84-1.87-1.87 0-1.03.84-1.87 1.87-1.87a1.853 1.853 0 011.66 1.03c.13.25.2.53.2.83 0 .13-.01.26-.04.38-.04.21-.12.4-.22.58-.33.56-.92.92-1.6.92z"/><path class="prefix__st3" d="M47.12 12.54a5.01 5.01 0 00-4.53-2.88c-2.76 0-5 2.24-5 5 0 .23.02.45.05.68.07.56.25 1.1.49 1.59l.09.18c.55.98 1.41 1.76 2.46 2.19.59.25 1.23.38 1.91.38 2.36 0 4.34-1.64 4.87-3.85.09-.37.14-.76.14-1.16-.01-.77-.18-1.49-.48-2.13zm-2.93 3.08a1.865 1.865 0 01-3.47-.96c0-1.03.84-1.87 1.87-1.87a1.853 1.853 0 011.66 1.03c.13.25.2.53.2.83 0 .13-.01.26-.04.38-.04.22-.12.41-.22.59z"/></g><g><path class="prefix__st2" d="M136.74 52.5a3.17 3.17 0 00-.88-.12c-.84 0-1.61.3-2.21.8a3.43 3.43 0 001.79 6.04c.14.02.27.02.41.02 1.01 0 1.92-.44 2.55-1.13.55-.61.88-1.42.88-2.3.02-1.58-1.07-2.92-2.54-3.31zm-.13 5.03c-.23.1-.48.15-.75.15a1.755 1.755 0 01-.87-.22c-.59-.32-.99-.93-.99-1.65 0-1.03.84-1.86 1.87-1.86s1.86.83 1.86 1.86c0 .45-.16.86-.42 1.19-.19.23-.43.41-.7.53z"/><path class="prefix__st3" d="M136.14 50.82c-.09 0-.18-.01-.27-.01-1.03 0-1.98.31-2.77.84-1.34.9-2.23 2.43-2.23 4.16a5 5 0 004.96 5h.04c1.11 0 2.13-.36 2.96-.97a4.99 4.99 0 002.04-4.03c0-2.66-2.1-4.84-4.73-4.99zM137.3 57c-.19.22-.42.4-.69.52-.23.1-.48.15-.75.15a1.755 1.755 0 01-.87-.22c-.59-.32-.99-.93-.99-1.65 0-1.03.84-1.86 1.87-1.86s1.86.83 1.86 1.86c0 .47-.16.88-.43 1.2z"/></g><g><path class="prefix__st2" d="M10.93 90.81a3.387 3.387 0 00-1.35-.28c-.36 0-.71.06-1.04.16-.19.07-.37.15-.54.24-1.1.57-1.85 1.72-1.85 3.05 0 1.19.61 2.24 1.53 2.85a3.333 3.333 0 001.89.57c.13 0 .26-.01.39-.02A3.439 3.439 0 0013 93.97c.01-1.41-.84-2.63-2.07-3.16zm-1.35 5.03c-.05 0-.1 0-.15-.01-.03-.08-.05-.16-.08-.23-.01.07-.02.15-.02.22-.66-.08-1.2-.51-1.46-1.09-.1-.23-.16-.48-.16-.75 0-1.03.84-1.87 1.87-1.87s1.87.84 1.87 1.87c0 .06 0 .12-.01.18-.09.93-.89 1.68-1.86 1.68z"/><path class="prefix__st3" d="M10.79 89.12c-.39-.1-.79-.15-1.21-.15-.69 0-1.35.14-1.95.4a5.011 5.011 0 00-3.05 4.61 5.008 5.008 0 005.96 4.91c1.09-.21 2.05-.77 2.76-1.57a4.99 4.99 0 001.29-3.35c0-2.34-1.62-4.31-3.8-4.85zm-1.21 6.72c-.05 0-.1 0-.15-.01-.03 0-.07-.01-.1-.01-.66-.08-1.2-.51-1.46-1.09-.1-.23-.16-.48-.16-.75 0-1.03.84-1.87 1.87-1.87s1.87.84 1.87 1.87c0 .06 0 .12-.01.18-.09.93-.89 1.68-1.86 1.68z"/></g></g></svg>