<svg version="1.1" id="prefix__Layer_1" xmlns="http://www.w3.org/2000/svg" x="0" y="0" viewBox="0 0 171.06 142.89" xml:space="preserve"><style>.prefix__st1{fill:#001b54}.prefix__st2{fill:#a6ce39}</style><path fill="none" d="M0 0h171.06v142.89H0z"/><path class="prefix__st1" d="M153.46 113.32H3.27c-1.01 0-1.82-.82-1.82-1.82s.82-1.82 1.82-1.82h150.2c1.01 0 1.82.82 1.82 1.82s-.82 1.82-1.83 1.82zM93.28 133.99H57.91a1.82 1.82 0 01-1.82-1.82v-7.49c0-1.01.82-1.82 1.82-1.82h35.37c1.01 0 1.82.82 1.82 1.82v7.49c.01 1.01-.81 1.82-1.82 1.82zm-33.55-3.65h31.73v-3.84H59.73v3.84z"/><path class="prefix__st1" d="M111.77 141.71H39.42a1.82 1.82 0 01-1.82-1.82v-7.71c0-1.01.82-1.82 1.82-1.82h72.34c1.01 0 1.82.82 1.82 1.82v7.71c.01 1-.81 1.82-1.81 1.82zm-70.52-3.65h68.69V134H41.25v4.06zM144.8 126.5H11.92c-5.78 0-10.48-4.7-10.48-10.48V28.64c0-5.78 4.7-10.48 10.48-10.48h105.43c1.01 0 1.82.82 1.82 1.82s-.82 1.82-1.82 1.82H11.92c-3.77 0-6.83 3.07-6.83 6.83v87.38c0 3.77 3.07 6.83 6.83 6.83H144.8c3.77 0 6.83-3.07 6.83-6.83V36.95a1.82 1.82 0 013.64 0v79.07c.01 5.77-4.69 10.48-10.47 10.48z"/><path class="prefix__st1" d="M46.21 112.3h-3.65v-8.21h3.65v8.21zm0-13.68h-3.65V94.9h3.65v3.72zM42.56 20.21h3.65v8.21h-3.65zM46.21 89.13h-3.65v-.22h3.65v.22zm0-5.69h-3.65v-8.21h3.65v8.21zm0-13.68h-3.65v-8.21h3.65v8.21zm0-13.68h-3.65v-8.21h3.65v8.21zm0-13.69h-3.65v-8.21h3.65v8.21z"/><path class="prefix__st1" d="M44.38 67.33H3.27c-1.01 0-1.82-.82-1.82-1.82s.82-1.82 1.82-1.82h41.12c1.01 0 1.82.82 1.82 1.82s-.82 1.82-1.83 1.82zM38.15 113.32H9.96v-6.75c0-6.94 6.32-12.58 14.09-12.58s14.09 5.64 14.09 12.58v6.75zm-24.54-3.65H34.5v-3.1c0-4.93-4.69-8.93-10.45-8.93s-10.45 4.01-10.45 8.93v3.1z"/><path class="prefix__st1" d="M24.05 96.66c-4.51 0-8.19-3.67-8.19-8.19 0-4.51 3.67-8.19 8.19-8.19 4.51 0 8.18 3.67 8.18 8.19.01 4.52-3.67 8.19-8.18 8.19zm0-12.72a4.55 4.55 0 00-4.54 4.54c0 2.5 2.04 4.54 4.54 4.54s4.54-2.04 4.54-4.54c0-2.51-2.04-4.54-4.54-4.54zM38.15 67.33H9.96v-6.75C9.96 53.65 16.28 48 24.05 48s14.09 5.64 14.09 12.58v6.75zm-24.54-3.65H34.5v-3.1c0-4.93-4.69-8.93-10.45-8.93S13.6 55.66 13.6 60.58v3.1z"/><path class="prefix__st1" d="M24.05 50.67c-4.51 0-8.19-3.67-8.19-8.18s3.67-8.19 8.19-8.19c4.51 0 8.18 3.67 8.18 8.19.01 4.5-3.67 8.18-8.18 8.18zm0-12.72c-2.5 0-4.54 2.04-4.54 4.54s2.04 4.54 4.54 4.54 4.54-2.03 4.54-4.54-2.04-4.54-4.54-4.54zM125.29 100.42c0-13.36-12.36-24.2-27.6-24.2s-27.6 10.83-27.6 24.2v11.08h55.2v-11.08z"/><circle class="prefix__st1" cx="97.68" cy="59.71" r="14.31"/><path class="prefix__st2" d="M117.36 47.22a1.835 1.835 0 01-1.83-1.83V3.01c0-1.01.82-1.82 1.82-1.82h50.84c1.01 0 1.82.82 1.82 1.82v33.94c0 1.01-.82 1.82-1.82 1.82h-39.16l-10.57 8.07c-.32.25-.71.38-1.1.38zm1.82-42.39v36.88l8.13-6.21c.32-.24.71-.38 1.11-.38h37.96V4.83h-47.2z"/><path class="prefix__st1" d="M136.33 12.13h-12.44c-1.01 0-1.82-.82-1.82-1.82s.82-1.82 1.82-1.82h12.44c1.01 0 1.82.82 1.82 1.82s-.82 1.82-1.82 1.82zM161.82 12.13h-15.47c-1.01 0-1.82-.82-1.82-1.82s.82-1.82 1.82-1.82h15.47a1.82 1.82 0 010 3.64zM138.48 29.67H124.2a1.82 1.82 0 010-3.64h14.28a1.82 1.82 0 010 3.64zM146.16 21.59h-22.27c-1.01 0-1.82-.82-1.82-1.82s.82-1.82 1.82-1.82h22.27c1.01 0 1.82.82 1.82 1.82s-.82 1.82-1.82 1.82zM161.82 21.59h-8.98c-1.01 0-1.82-.82-1.82-1.82s.82-1.82 1.82-1.82h8.98a1.82 1.82 0 010 3.64z"/><path class="prefix__st2" d="M44.38 36.01c-2.59 0-4.71-2.11-4.71-4.71s2.11-4.71 4.71-4.71c2.59 0 4.71 2.11 4.71 4.71s-2.11 4.71-4.71 4.71zm0-5.76a1.06 1.06 0 10.001 2.121 1.06 1.06 0 00-.001-2.121zM44.38 96.72c-2.59 0-4.71-2.11-4.71-4.71s2.11-4.71 4.71-4.71c2.59 0 4.71 2.11 4.71 4.71s-2.11 4.71-4.71 4.71zm0-5.77a1.06 1.06 0 10.001 2.121 1.06 1.06 0 00-.001-2.121zM83.45 119.56H73.28c-1.01 0-1.82-.82-1.82-1.82s.82-1.82 1.82-1.82h10.18c1.01 0 1.82.82 1.82 1.82s-.82 1.82-1.83 1.82z"/></svg>