<svg version="1.1" id="prefix__Layer_1" xmlns="http://www.w3.org/2000/svg" xmlns:xlink="http://www.w3.org/1999/xlink" x="0" y="0" viewBox="0 0 36.62 34.45" xml:space="preserve"><style></style><defs><path id="prefix__SVGID_1_" d="M0 0h36.62v34.45H0z"/></defs><clipPath id="prefix__SVGID_00000164483504143843390450000013941196365212909975_"><use xlink:href="#prefix__SVGID_1_" overflow="visible"/></clipPath><path d="M17.25 34.45C7.74 34.45 0 26.72 0 17.21A17.114 17.114 0 013.9 6.3C6.21 3.48 9.39 1.44 12.88.54 16.7-.47 20.4.26 20.55.29c2.4.46 4.64 1.42 6.65 2.84.45.32.56.94.24 1.39-.32.45-.94.56-1.39.24-1.78-1.26-3.75-2.1-5.88-2.51-.05-.01-3.42-.67-6.78.22-3.08.79-5.9 2.6-7.94 5.09-2.03 2.49-3.22 5.5-3.41 8.7-.03.31-.04.63-.04.95 0 8.4 6.84 15.24 15.25 15.24 8.4 0 15.24-6.84 15.24-15.24a15.324 15.324 0 00-.99-5.4c-.19-.52.07-1.09.58-1.29.52-.2 1.09.06 1.29.58a17.005 17.005 0 011.11 6.11c.01 9.51-7.73 17.24-17.23 17.24" clip-path="url(#prefix__SVGID_00000164483504143843390450000013941196365212909975_)" fill="#001b54"/><path d="M16.94 23.24a.96.96 0 01-.67-.26l-6.32-5.74a.997.997 0 111.34-1.48l5.58 5.06 18-19.84a.997.997 0 111.48 1.34L17.69 22.91c-.2.22-.47.33-.75.33" clip-path="url(#prefix__SVGID_00000164483504143843390450000013941196365212909975_)" fill="#a6ce39"/></svg>